<svg width="192" height="50" viewBox="0 0 192 50" fill="none" xmlns="http://www.w3.org/2000/svg">
<path d="M29.2506 37.0458L20.5876 28.4301C19.4751 29.5416 18.1037 30.3626 16.5954 30.8202C15.087 31.2779 13.4884 31.358 11.9415 31.0534C10.3945 30.7488 8.94716 30.0689 7.72794 29.0742C6.50872 28.0794 5.55536 26.8006 4.95257 25.3514C4.34977 23.9021 4.1162 22.3271 4.27257 20.7665C4.42894 19.2058 4.97043 17.7077 5.84894 16.4052C6.72745 15.1028 7.91579 14.0363 9.30841 13.3004C10.701 12.5646 12.2548 12.1822 13.8318 12.1872C15.1067 12.1899 16.3686 12.4424 17.5453 12.9306C18.7219 13.4188 19.7902 14.133 20.6891 15.0322L29.352 6.41639C26.3021 3.36268 22.4091 1.2786 18.1666 0.428298C13.9241 -0.42201 9.5233 -0.000239091 5.5222 1.64025C1.52111 3.28074 -1.90005 6.06607 -4.30743 9.64289C-6.71482 13.2197 -8 17.4269 -8 21.7311C-8 26.0353 -6.71482 30.2426 -4.30743 33.8194C-1.90005 37.3962 1.52111 40.1814 5.5222 41.8219C9.5233 43.4624 13.9241 43.8843 18.1666 43.034C22.4091 42.1837 26.3021 40.0995 29.352 37.0458H29.2506Z" fill="#231F20"/>
<path d="M178.569 1.0293H163.353L150.227 42.2518H163.698L165.442 35.5529H176.378L178.082 42.2518H191.999L178.569 1.0293ZM167.654 25.7063L170.778 12.7726H170.9L173.963 25.7063H167.654Z" fill="#231F20"/>
<path d="M116.711 11.9051H125.374V42.2117H137.993V11.9051H146.656V1.00928H116.711V11.9051Z" fill="#231F20"/>
<path d="M108.434 38.3174C109.55 33.7976 108.19 29.5806 104.721 24.3748C101.252 19.169 99.9941 16.8688 100.136 12.9342C100.339 7.72845 103.727 3.55165 108.84 0.383789H92.6093C90.1991 2.04324 88.2108 4.2384 86.8022 6.79516C85.3936 9.35191 84.6033 12.1999 84.4941 15.1133C84.6002 18.9471 85.9687 22.6404 88.3894 25.6258C90.5399 28.6726 92.6296 31.336 92.731 34.9478C92.731 39.5079 89.3835 43.3214 84.9202 46.2673L98.5942 50.0002C102.774 47.478 107.156 42.9178 108.332 38.2972" fill="#231F20"/>
<path d="M54.9342 0.000234648C50.6193 0.0161898 46.4059 1.30356 42.8263 3.69976C39.2466 6.09596 36.4613 9.49354 34.8221 13.4632C33.1829 17.433 32.7634 21.7967 33.6165 26.0035C34.4695 30.2102 36.557 34.0712 39.6152 37.0986C42.6734 40.1261 46.5651 42.1843 50.7987 43.0132C55.0324 43.8421 59.4181 43.4046 63.4019 41.7559C67.3857 40.1072 70.7888 37.3213 73.1815 33.7501C75.5742 30.1788 76.8491 25.9824 76.8451 21.691C76.8451 18.834 76.2776 16.0052 75.1753 13.3669C74.0729 10.7287 72.4574 8.33301 70.4214 6.31751C68.3855 4.30202 65.9692 2.7064 63.3115 1.62229C60.6537 0.538176 57.8067 -0.0130536 54.9342 0.000234648ZM54.9342 31.1946C53.0394 31.1946 51.1872 30.6355 49.612 29.5881C48.0368 28.5407 46.8095 27.0521 46.0853 25.3107C45.3611 23.5693 45.1727 21.6534 45.5438 19.8054C45.9149 17.9574 46.829 16.2605 48.1702 14.9294C49.5114 13.5983 51.2196 12.6928 53.0785 12.3276C54.9373 11.9625 56.8634 12.154 58.6128 12.8779C60.3622 13.6018 61.8563 14.8256 62.9061 16.3944C63.9559 17.9632 64.5141 19.8065 64.51 21.691C64.5235 22.9492 64.2856 24.1975 63.8101 25.3636C63.3346 26.5296 62.6311 27.5901 61.7403 28.4835C60.8495 29.377 59.7891 30.0857 58.6207 30.5684C57.4524 31.0511 56.1993 31.2982 54.9342 31.2955V31.1946Z" fill="#231F20"/>
</svg>
