<svg width="203" height="87" viewBox="0 0 203 87" fill="none" xmlns="http://www.w3.org/2000/svg">
<g clip-path="url(#clip0_579_334)">
<path d="M124.185 22.3203C128.606 22.3203 130.873 24.8683 130.873 24.8683L128.836 28.1899C128.836 28.1899 126.835 26.3761 124.376 26.3761C120.956 26.3761 119.341 28.9242 119.341 31.4722C119.341 34.1382 121.082 36.8786 124.376 36.8786C127.065 36.8786 129.106 34.6933 129.106 34.6933L131.334 37.8969C130.404 38.8642 129.286 39.6304 128.05 40.1482C126.813 40.666 125.485 40.9246 124.146 40.9082C118.571 40.9082 114.803 36.931 114.803 31.6033C114.803 26.3368 118.802 22.3203 124.185 22.3203Z" fill="#231F20"/>
<path d="M147.022 22.3203C152.405 22.3203 156.365 26.3368 156.365 31.4722C156.365 33.9609 155.381 36.3476 153.629 38.1074C151.877 39.8672 149.5 40.8557 147.022 40.8557C144.545 40.8557 142.168 39.8672 140.416 38.1074C138.664 36.3476 137.68 33.9609 137.68 31.4722C137.68 26.3368 141.6 22.3203 147.022 22.3203ZM147.022 36.8392C149.677 36.8392 151.809 34.5228 151.809 31.4722C151.809 28.5396 149.66 26.3368 147.022 26.3368C144.385 26.3368 142.236 28.5221 142.236 31.4722C142.179 34.5622 144.329 36.8392 147.022 36.8392Z" fill="#231F20"/>
<path d="M165.285 34.9732C165.285 34.9732 167.322 36.8263 169.55 36.8263C170.42 36.8263 171.434 36.481 171.434 35.3971C171.434 33.273 163.401 33.3517 163.401 27.8317C163.401 24.5101 166.169 22.3467 169.706 22.3467C173.549 22.3467 175.433 24.3921 175.433 24.3921L173.588 27.9847C173.588 27.9847 171.782 26.4026 169.628 26.4026C168.758 26.4026 167.744 26.7871 167.744 27.7924C167.744 30.0301 175.781 29.6455 175.781 35.3228C175.781 38.2948 173.51 40.8822 169.476 40.8822C167.059 40.9253 164.723 40.0097 162.975 38.3341L165.285 34.9732Z" fill="#231F20"/>
<path d="M187.469 33.2246L181.586 22.6436H186.542L188.583 26.9703C189.158 28.2028 189.658 29.5534 189.658 29.5534H189.697C189.697 29.5534 190.198 28.2028 190.776 26.9703L192.774 22.6436H197.735L191.812 33.2246V40.5628H187.43V33.2246H187.469Z" fill="#231F20"/>
<path d="M118.381 49.3131C118.381 49.3131 118.033 50.9739 117.689 52.0927L113.994 65.3398H112.65L108.076 47.8096H109.19L112.88 62.0969C113.111 62.9448 113.315 63.9893 113.315 63.9893H113.355C113.394 63.9893 113.585 62.9841 113.816 62.0969L117.815 47.8096H119.007L123.006 62.0969C123.237 62.971 123.468 63.9893 123.468 63.9893H123.507C123.507 63.9893 123.698 62.9448 123.942 62.0969L127.75 47.8096H128.864L124.212 65.3398H122.867L119.173 52.0927C118.868 50.9739 118.481 49.3131 118.481 49.3131H118.407H118.381Z" fill="#231F20"/>
<path d="M145.177 47.4991C146.346 47.4949 147.504 47.7244 148.584 48.1742C149.664 48.624 150.644 49.285 151.467 50.1189C152.289 50.9527 152.939 51.9427 153.377 53.0311C153.816 54.1196 154.034 55.2847 154.019 56.4587C154.019 61.6334 150.059 65.6368 145.177 65.6368C140.295 65.6368 136.335 61.5853 136.335 56.4587C136.32 55.2847 136.538 54.1196 136.977 53.0311C137.415 51.9427 138.065 50.9527 138.888 50.1189C139.71 49.285 140.69 48.624 141.77 48.1742C142.85 47.7244 144.008 47.4949 145.177 47.4991ZM145.177 64.6054C149.442 64.6054 152.905 61.0521 152.905 56.4193C152.905 54.3607 152.091 52.3864 150.642 50.9307C149.192 49.4751 147.227 48.6573 145.177 48.6573C143.127 48.6573 141.162 49.4751 139.712 50.9307C138.263 52.3864 137.449 54.3607 137.449 56.4193C137.449 61.0521 140.908 64.6054 145.177 64.6054Z" fill="#231F20"/>
<path d="M170.781 47.4991C171.95 47.4949 173.108 47.7244 174.187 48.1742C175.267 48.624 176.247 49.285 177.07 50.1189C177.893 50.9527 178.543 51.9427 178.981 53.0311C179.419 54.1196 179.637 55.2847 179.623 56.4587C179.623 61.6334 175.663 65.6368 170.781 65.6368C165.898 65.6368 161.938 61.5853 161.938 56.4587C161.924 55.2847 162.142 54.1196 162.58 53.0311C163.019 51.9427 163.668 50.9527 164.491 50.1189C165.314 49.285 166.294 48.624 167.374 48.1742C168.453 47.7244 169.612 47.4949 170.781 47.4991ZM170.781 64.6054C175.049 64.6054 178.509 61.0521 178.509 56.4193C178.509 54.3607 177.695 52.3864 176.245 50.9307C174.796 49.4751 172.83 48.6573 170.781 48.6573C168.731 48.6573 166.765 49.4751 165.316 50.9307C163.866 52.3864 163.052 54.3607 163.052 56.4193C163.052 61.0521 166.516 64.6054 170.781 64.6054Z" fill="#231F20"/>
<path d="M188.775 47.77H194.271C199.463 47.77 203.001 50.9736 203.001 56.5111C203.001 62.0486 199.463 65.2784 194.271 65.2784H188.775V47.77ZM194.08 64.3344C198.732 64.3344 201.847 61.594 201.847 56.5723C201.847 51.5505 198.732 48.8102 194.08 48.8102H189.855V64.3344H194.08Z" fill="#231F20"/>
<path d="M85.6595 52.7129L72.309 55.261C70.7507 59.1182 68.4494 62.6285 65.537 65.5903C62.6247 68.5521 59.1587 70.9071 55.3379 72.5202L71.9826 76.0735C78.88 69.9299 83.6671 61.7534 85.6595 52.7129Z" fill="#231F20"/>
<path d="M8.8418 69.7803C15.1163 78.1033 24.1665 83.8773 34.3344 86.0445C44.5023 88.2117 55.1072 86.627 64.2066 81.5807L8.8418 69.7803Z" fill="#231F20"/>
<path d="M72.3091 31.7827L85.651 34.3308C83.6855 25.2858 78.9044 17.104 72.0002 10.9702L55.3555 14.5235C59.1767 16.1325 62.6424 18.4862 65.5524 21.4487C68.4624 24.4111 70.7589 27.9235 72.3091 31.7827Z" fill="#231F20"/>
<path d="M64.2066 5.40615C55.1075 0.358954 44.5022 -1.22623 34.3341 0.941012C24.1659 3.10826 15.1158 8.88279 8.8418 17.2066L64.2066 5.40615Z" fill="#231F20"/>
<path d="M15.9916 58.7749C13.3951 54.107 12.032 48.8491 12.032 43.5021C12.032 38.1551 13.3951 32.8971 15.9916 28.2292L3.72897 25.8735C1.27048 31.4157 0 37.4151 0 43.4824C0 49.5497 1.27048 55.5492 3.72897 61.0913L15.9916 58.7749Z" fill="#231F20"/>
</g>
<defs>
<clipPath id="clip0_579_334">
<rect width="203" height="87" fill="white"/>
</clipPath>
</defs>
</svg>
