<svg width="150" height="79" viewBox="0 0 150 79" fill="none" xmlns="http://www.w3.org/2000/svg">
<path fill-rule="evenodd" clip-rule="evenodd" d="M0.018876 28.0194C-0.0883941 24.8189 0.463007 21.6306 1.63872 18.6533C2.81443 15.6759 4.58918 12.9734 6.85239 10.7142C9.11561 8.45495 11.8187 6.68751 14.7932 5.52206C17.7676 4.3566 20.9496 3.81806 24.1407 3.94014H155.839C159.032 3.81151 162.217 4.34556 165.194 5.50869C168.172 6.67183 170.878 8.43904 173.142 10.6996C175.407 12.9602 177.181 15.6653 178.355 18.6456C179.528 21.626 180.075 24.8172 179.961 28.0194V54.7912C180.094 58.0033 179.561 61.2079 178.395 64.2028C177.23 67.1977 175.458 69.9176 173.191 72.1908C170.924 74.464 168.212 76.2409 165.225 77.4095C162.238 78.5781 159.043 79.1128 155.839 78.9799H24.1407C20.9384 79.1095 17.744 78.5726 14.7589 77.4028C11.7739 76.2331 9.06278 74.4559 6.79656 72.1834C4.53035 69.9109 2.75813 67.1923 1.59162 64.1989C0.425112 61.2056 -0.110359 58.0024 0.018876 54.7912" fill="white"/>
<path fill-rule="evenodd" clip-rule="evenodd" d="M118.139 32.6386C115.674 32.6589 113.294 33.5467 111.415 35.147C109.536 36.7473 108.277 38.9585 107.857 41.3946H128.072C127.805 38.9552 126.638 36.7039 124.8 35.0836C122.962 33.4633 120.586 32.5912 118.139 32.6386Z" fill="#231F20"/>
<path fill-rule="evenodd" clip-rule="evenodd" d="M24.8393 43.6055C24.8162 45.0198 25.0712 46.425 25.5897 47.7406C26.1082 49.0562 26.88 50.2564 27.8612 51.2728C28.8423 52.2892 30.0135 53.1018 31.3078 53.6642C32.6022 54.2266 33.9944 54.5278 35.4049 54.5506C42.3031 54.5506 45.9705 49.6253 45.9705 43.6055C46.0329 42.181 45.805 40.7589 45.3006 39.4258C44.7963 38.0927 44.0261 36.8768 43.0372 35.8524C42.0483 34.8279 40.8614 34.0164 39.5491 33.4676C38.2368 32.9188 36.8267 32.6441 35.4049 32.6603C33.9944 32.6832 32.6022 32.9844 31.3078 33.5468C30.0135 34.1093 28.8423 34.9219 27.8612 35.9383C26.88 36.9547 26.1082 38.1549 25.5897 39.4704C25.0712 40.786 24.8162 42.1911 24.8393 43.6055Z" fill="#231F20"/>
<path fill-rule="evenodd" clip-rule="evenodd" d="M155.861 14.6446H51.0789V58.4251H45.8834V54.8351C44.463 56.2424 42.7788 57.3538 40.928 58.1053C39.0771 58.8567 37.0962 59.2332 35.0995 59.2131C30.9368 59.2131 26.9446 57.5549 24.0011 54.6033C21.0576 51.6516 19.404 47.6483 19.404 43.474C19.404 39.2998 21.0576 35.2965 24.0011 32.3448C26.9446 29.3932 30.9368 27.735 35.0995 27.735C37.0962 27.7149 39.0771 28.0916 40.928 28.843C42.7788 29.5944 44.463 30.7057 45.8834 32.113V14.4258H24.0537C22.2756 14.3242 20.4962 14.6006 18.832 15.2368C17.1679 15.873 15.6566 16.8547 14.3973 18.1175C13.1379 19.3803 12.159 20.8957 11.5245 22.5645C10.8901 24.2332 10.6145 26.0177 10.7158 27.8007V54.5724C10.618 56.3546 10.896 58.1374 11.5317 59.8046C12.1674 61.4718 13.1464 62.9858 14.405 64.2479C15.6636 65.5099 17.1735 66.4918 18.836 67.1292C20.4986 67.7667 22.2765 68.0454 24.0537 67.9473H155.032C155.77 69.1108 156.855 70.0119 158.132 70.5227C159.409 71.0335 160.814 71.1281 162.148 70.7931L146.344 47.4581L139.14 58.25H132.94L143.44 43.2552L132.526 27.6474C136.891 27.6474 139.074 27.932 141.388 31.4782L146.453 38.9427L153.504 28.348H159.704L149.334 43.1677L164.615 65.0579C164.907 64.8201 165.184 64.5641 165.445 64.2917C166.688 63.0185 167.657 61.5027 168.292 59.8383C168.926 58.1739 169.213 56.3964 169.134 54.6162V28.0195C169.235 26.2365 168.96 24.4522 168.325 22.7835C167.691 21.1147 166.712 19.5992 165.452 18.3364C164.193 17.0735 162.682 16.0919 161.018 15.4556C159.354 14.8194 157.574 14.5431 155.796 14.6446H155.861ZM80.9856 48.3118C80.9856 55.864 75.419 59.2569 68.9793 59.2569C62.5395 59.2569 56.9511 55.7764 56.9511 48.3118V27.8663C59.527 27.8663 62.1466 27.9976 62.1466 32.3757V47.5675C62.1466 52.3834 64.657 54.6162 68.9793 54.6162C73.3016 54.6162 75.7901 52.4271 75.7901 47.5675V27.8663C78.3442 27.8663 80.9856 27.9976 80.9856 32.3757V48.3118ZM91.9005 42.8831V58.4689H86.705V27.8226C89.6302 27.8226 91.9005 28.129 91.9005 32.4414C93.4286 28.939 97.2705 27.2096 102.422 27.6474L101.636 32.6385C96.8995 32.4415 91.966 34.6086 91.966 42.8831H91.9005ZM133.377 43.6492C133.377 44.3935 133.377 45.0721 133.377 45.8382H107.836C108.249 48.2892 109.516 50.514 111.41 52.1171C113.305 53.7203 115.704 54.598 118.183 54.5943C119.989 54.6321 121.77 54.1725 123.332 53.2655C124.895 52.3584 126.18 51.0387 127.046 49.4502H132.46C131.341 52.3726 129.356 54.8811 126.772 56.6382C124.189 58.3954 121.13 59.317 118.009 59.2789C115.947 59.3179 113.898 58.9378 111.986 58.1618C110.075 57.3857 108.339 56.2297 106.885 54.7632C105.431 53.2967 104.288 51.5501 103.524 49.6288C102.761 47.7075 102.394 45.6511 102.444 43.5836C102.382 41.5088 102.74 39.4429 103.498 37.5113C104.256 35.5797 105.397 33.8225 106.853 32.3466C108.308 30.8706 110.048 29.7066 111.965 28.9251C113.883 28.1437 115.939 27.7612 118.009 27.8007C120.071 27.7817 122.116 28.1818 124.021 28.9766C125.925 29.7714 127.649 30.9445 129.089 32.4254C130.529 33.9062 131.655 35.6641 132.4 37.593C133.144 39.522 133.491 41.5821 133.421 43.6492H133.377Z" fill="#231F20"/>
<path d="M155.839 8.20877C158.46 8.07481 161.079 8.4918 163.529 9.43301C165.979 10.3742 168.206 11.8189 170.066 13.6741C171.927 15.5293 173.38 17.7543 174.332 20.2059C175.284 22.6575 175.714 25.2817 175.595 27.91V54.6817C175.73 57.3189 175.312 59.9552 174.366 62.42C173.421 64.8847 171.971 67.1231 170.109 68.9904C168.247 70.8576 166.014 72.3122 163.556 73.2599C161.098 74.2077 158.469 74.6276 155.839 74.4924H24.1407C21.5124 74.6208 18.8865 74.1962 16.4316 73.246C13.9768 72.2959 11.7474 70.8411 9.88669 68.9753C8.02603 67.1094 6.57528 64.8739 5.62773 62.4122C4.68019 59.9506 4.25684 57.3172 4.38482 54.6817V28.0194C4.27251 25.3928 4.70749 22.7716 5.66204 20.3231C6.6166 17.8745 8.06976 15.6525 9.92873 13.7986C11.7877 11.9448 14.0116 10.4999 16.4587 9.55633C18.9057 8.61271 21.522 8.19102 24.1407 8.31819H155.839V8.20877ZM155.839 3.94014H24.1407C20.9496 3.81806 17.7676 4.3566 14.7932 5.52206C11.8187 6.68751 9.11561 8.45495 6.85239 10.7142C4.58918 12.9734 2.81443 15.6759 1.63872 18.6533C0.463007 21.6306 -0.0883941 24.8189 0.018876 28.0194V54.7912C-0.110359 58.0024 0.425112 61.2056 1.59162 64.1989C2.75813 67.1923 4.53035 69.9109 6.79656 72.1834C9.06278 74.4559 11.7739 76.2331 14.7589 77.4028C17.744 78.5726 20.9384 79.1095 24.1407 78.9799H155.839C159.043 79.1128 162.238 78.5781 165.225 77.4095C168.212 76.2409 170.924 74.464 173.191 72.1908C175.458 69.9176 177.23 67.1977 178.395 64.2028C179.561 61.2079 180.094 58.0033 179.961 54.7912V28.0194C180.075 24.8172 179.528 21.626 178.355 18.6456C177.181 15.6653 175.407 12.9602 173.142 10.6996C170.878 8.43904 168.172 6.67183 165.194 5.50869C162.217 4.34556 159.032 3.81151 155.839 3.94014Z" fill="#231F20"/>
</svg>
