<svg width="229" height="62" viewBox="0 0 229 62" fill="none" xmlns="http://www.w3.org/2000/svg">
<path fill-rule="evenodd" clip-rule="evenodd" d="M224.763 61.4949V57.2174H225.65L226.7 60.2583C226.7 60.5218 226.861 60.7448 226.901 60.8867L227.144 60.1975L228.213 57.2174H229V61.4949H228.435V57.9067L227.144 61.4949H226.619L225.328 57.8458V61.4949H224.763ZM222.14 61.4949V57.7242H220.727V57.2174H224.238V57.7242H222.745V61.4949H222.14ZM183.701 31.6337C183.701 30.4984 184.367 29.9106 185.718 29.9106H188.564C189.223 29.9253 189.872 30.0811 190.467 30.3678C191.062 30.6544 191.589 31.0653 192.014 31.5729L209.468 49.9802C210.033 50.5681 210.779 50.6694 210.779 49.9802V31.3701C210.779 30.4579 211.243 29.9106 212.394 29.9106H215.198C216.066 29.9106 216.833 30.2754 216.813 31.3296V59.7109C216.813 61.3327 216.671 61.7381 215.218 61.7381H212.656C212.188 61.7768 211.718 61.7012 211.286 61.5176C210.854 61.334 210.472 61.048 210.174 60.684L191.53 40.9792C190.743 40.1075 189.915 40.1075 189.895 41.2225V60.3394C189.895 61.2111 189.492 61.7178 188.442 61.7381H185.214C184.266 61.7381 183.781 61.3124 183.781 60.4002V31.6337H183.701ZM167.195 29.9106H171.634C171.774 29.9106 171.912 29.9385 172.041 29.9928C172.169 30.047 172.286 30.1264 172.383 30.2265C172.481 30.3265 172.558 30.4452 172.609 30.5754C172.661 30.7057 172.686 30.8448 172.684 30.985V60.5218C172.684 60.8014 172.573 61.0695 172.376 61.2672C172.179 61.4649 171.913 61.576 171.634 61.576H167.195C166.917 61.576 166.65 61.4649 166.453 61.2672C166.256 61.0695 166.146 60.8014 166.146 60.5218V30.985C166.143 30.8448 166.168 30.7057 166.22 30.5754C166.271 30.4452 166.348 30.3265 166.446 30.2265C166.544 30.1264 166.66 30.047 166.789 29.9928C166.918 29.9385 167.056 29.9106 167.195 29.9106ZM118.546 32.0798C118.524 31.7858 118.567 31.4905 118.67 31.2146C118.773 30.9387 118.936 30.6889 119.145 30.4824C119.354 30.2759 119.606 30.1177 119.882 30.019C120.159 29.9202 120.454 29.8833 120.746 29.9106H124.539C126.557 29.9106 126.88 30.4985 128.01 32.546L136.262 47.9326C136.706 48.7233 137.231 48.7233 137.695 47.9326L146.654 32.0798C147.32 30.8634 148.026 29.9106 148.975 29.9106H153.454C154.766 29.9106 155.472 30.093 155.472 31.9378V59.934C155.472 61.2719 155.048 61.6368 153.878 61.6571H150.669C149.459 61.6571 149.035 61.0287 149.035 59.934V39.3778L137.998 59.8528C137.231 61.2719 136.565 61.2516 135.819 59.8528L124.6 39.0535V59.8528C124.6 60.988 124.095 61.5557 123.127 61.5557H120.342C120.107 61.5933 119.867 61.5748 119.641 61.5018C119.415 61.4288 119.209 61.3034 119.04 61.1357C118.871 60.9679 118.744 60.7624 118.669 60.536C118.593 60.3097 118.572 60.0687 118.607 59.8326V32.0595L118.546 32.0798ZM85.9791 36.8234C85.9791 35.5868 86.7862 35.0191 88.239 35.0191H96.7541C100.305 35.0191 103.877 36.3977 103.897 39.6616C103.897 42.4186 101.536 44.0404 97.198 44.0201H88.2794C86.9476 44.0201 85.9791 43.4323 85.9791 42.2159V36.8031V36.8234ZM79.3002 31.877C79.3002 30.6809 80.1074 29.8497 81.5602 29.8497H97.8841C105.067 29.8497 110.758 32.1608 110.798 39.2764C110.798 43.9796 108.619 46.311 103.917 47.7908C102.747 48.1557 102.545 48.8652 103.292 49.9599L110.475 60.2988C111.101 61.1706 110.758 61.5354 109.789 61.5354H105.41C104.2 61.5354 103.736 61.4138 103.13 60.5624L95.7049 50.4262C95.3037 49.8485 94.7596 49.3858 94.1263 49.0836C93.4929 48.7814 92.7922 48.6502 92.093 48.703H86.0397L85.9186 59.8528C85.9186 60.988 85.4343 61.5557 84.486 61.576H80.8136C79.6231 61.576 79.2397 60.9071 79.2397 59.8326V31.8567L79.3002 31.877ZM55.6316 39.4588C55.9342 38.8304 56.2975 38.8101 56.6203 39.4588L62.2903 51.2169C62.714 52.0886 62.4315 52.5548 61.2814 52.5548H50.9301C50.0827 52.5548 49.7598 52.0074 50.1028 51.2979L55.6316 39.4588ZM52.9883 32.4041C53.755 30.8634 54.2393 29.8497 56.6607 29.8497C59.082 29.8497 59.4452 30.7418 60.2321 32.3027L74.1145 59.5082C74.9822 61.1908 74.5382 61.5354 73.0249 61.5354H68.8683C67.597 61.5354 67.2742 61.3936 66.8505 60.4205L65.6802 58.0284C65.2968 57.2175 64.9538 57.035 63.279 57.035H48.9527C47.8429 57.035 47.3586 57.2986 46.9349 58.0486L45.926 60.1772C45.3812 61.353 45.0382 61.5354 43.8074 61.5354H40.6596C39.5498 61.5354 39.1462 61.0489 39.691 59.9137L52.9883 32.4041ZM30.1671 37.3911C31.3172 37.979 32.084 38.0601 32.5279 37.2695L33.9807 34.5123C34.0932 34.3591 34.1695 34.1821 34.2039 33.9949C34.2384 33.8076 34.23 33.6149 34.1795 33.4314C34.129 33.2479 34.0376 33.0784 33.9123 32.9355C33.787 32.7926 33.631 32.6801 33.4561 32.6067C26.8983 28.9172 14.731 27.8428 7.64855 32.0798C-1.22973 37.533 -2.4404 50.7101 4.33937 56.7918C11.2604 63.6033 23.69 62.8734 33.3552 59.4879C35.1309 58.7986 35.373 58.0891 35.373 55.4334V46.1488C35.4075 45.8484 35.3747 45.544 35.2769 45.258C35.1792 44.972 35.0191 44.7116 34.8082 44.4958C34.5973 44.2801 34.3411 44.1145 34.0583 44.0112C33.7754 43.9078 33.4731 43.8692 33.1736 43.8985H20.4817C20.2926 43.8714 20.0998 43.8888 19.9186 43.9496C19.7374 44.0103 19.5727 44.1125 19.4376 44.2482C19.3025 44.384 19.2007 44.5495 19.1403 44.7315C19.0799 44.9136 19.0625 45.1073 19.0894 45.2973V47.2232C19.0894 48.1151 19.6141 48.5611 20.6633 48.5611H28.008C29.1178 48.5611 29.5819 49.0274 29.5819 49.8585V54.8456C21.5107 57.9067 13.0159 57.0147 9.40404 52.5751C4.84384 46.3109 7.89068 37.087 14.2064 35.7085C19.535 34.2776 25.1996 34.8394 30.1469 37.2896L30.1671 37.3911Z" fill="#231F20"/>
<path fill-rule="evenodd" clip-rule="evenodd" d="M198.532 1.08334L188.705 18.3351C187.495 20.2002 187.999 22.1058 190.219 22.1058H210.175C212.879 22.1058 213.302 20.6056 211.789 18.0513L202.104 1.08334C201.932 0.756448 201.676 0.482758 201.361 0.291823C201.046 0.100889 200.685 0 200.318 0C199.95 0 199.589 0.100889 199.275 0.291823C198.96 0.482758 198.703 0.756448 198.532 1.08334Z" fill="#231F20"/>
</svg>
