<svg width="223" height="52" viewBox="0 0 223 52" fill="none" xmlns="http://www.w3.org/2000/svg">
<path d="M217.429 20.6827C215.53 29.0562 212.829 41.1142 212.829 41.1142H201.941C201.941 41.1142 199.261 29.0562 197.299 20.6827C196.834 18.7149 195.547 13.5023 195.041 11.5973C195.008 11.4516 195.028 11.2991 195.098 11.1671C195.168 11.035 195.284 10.9321 195.423 10.8766C195.563 10.8212 195.718 10.817 195.861 10.8646C196.003 10.9123 196.124 11.0088 196.201 11.1368C196.729 12.1835 197.763 14.3397 198.881 16.5378C200 18.7358 201.392 21.4573 202.384 23.3623C202.49 23.5716 202.595 23.5716 202.616 23.5716C202.637 23.5716 202.722 23.5716 202.722 23.2157C202.722 23.2157 202.722 20.0337 202.722 16.6005C202.722 12.4137 202.553 8.52005 202.553 8.01764C202.539 7.85663 202.59 7.69666 202.695 7.57299C202.8 7.44933 202.95 7.37209 203.112 7.35821C203.274 7.34433 203.436 7.39498 203.56 7.49901C203.685 7.60305 203.763 7.75198 203.777 7.91299C204.135 9.71331 204.853 13.2093 205.655 16.5587C206.309 19.3848 206.963 22.0852 207.195 23.1319C207.195 23.3412 207.343 23.3831 207.385 23.3831C207.427 23.3831 207.533 23.3831 207.596 23.1319C207.828 22.0852 208.461 19.4267 209.136 16.5587C209.938 13.2093 210.635 9.71331 211.015 7.91299C211.029 7.75198 211.106 7.60305 211.231 7.49901C211.356 7.39498 211.517 7.34433 211.679 7.35821C211.842 7.37209 211.992 7.44933 212.096 7.57299C212.201 7.69666 212.252 7.85663 212.238 8.01764C212.112 13.0837 212.034 18.1497 212.006 23.2157C212.006 23.4669 212.006 23.5506 212.006 23.5716C212.006 23.5925 212.133 23.5716 212.238 23.3623C213.23 21.4573 214.56 18.8824 215.741 16.5378C216.923 14.1932 217.851 12.1835 218.4 11.1368C218.477 11.0088 218.598 10.9123 218.741 10.8646C218.883 10.817 219.038 10.8212 219.178 10.8766C219.318 10.9321 219.433 11.035 219.503 11.1671C219.573 11.2991 219.594 11.4516 219.561 11.5973C219.075 13.5023 217.767 18.7149 217.324 20.6827" fill="#231F20"/>
<path d="M195.505 5.58931C195.509 5.95452 195.404 6.31282 195.202 6.61851C195.001 6.92419 194.712 7.16352 194.373 7.30617C194.034 7.44881 193.66 7.48833 193.299 7.41963C192.937 7.35093 192.604 7.17708 192.342 6.9203C192.081 6.66352 191.902 6.33539 191.828 5.97748C191.755 5.61957 191.79 5.24805 191.93 4.91021C192.07 4.57237 192.308 4.28345 192.614 4.08008C192.92 3.87672 193.28 3.76809 193.648 3.76807C194.137 3.76804 194.606 3.95927 194.953 4.30023C195.301 4.64119 195.499 5.10437 195.505 5.58931Z" fill="#231F20"/>
<path d="M204.241 1.8422C204.241 2.33078 204.046 2.79935 203.697 3.14483C203.349 3.4903 202.877 3.6844 202.384 3.6844C201.892 3.6844 201.419 3.4903 201.071 3.14483C200.723 2.79935 200.527 2.33078 200.527 1.8422C200.527 1.35362 200.723 0.885054 201.071 0.539577C201.419 0.194099 201.892 0 202.384 0C202.877 0 203.349 0.194099 203.697 0.539577C204.046 0.885054 204.241 1.35362 204.241 1.8422Z" fill="#231F20"/>
<path d="M214.179 1.8422C214.179 2.33078 213.983 2.79935 213.635 3.14483C213.287 3.4903 212.814 3.6844 212.322 3.6844C211.829 3.6844 211.357 3.4903 211.009 3.14483C210.66 2.79935 210.465 2.33078 210.465 1.8422C210.465 1.35362 210.66 0.885054 211.009 0.539577C211.357 0.194099 211.829 0 212.322 0C212.814 0 213.287 0.194099 213.635 0.539577C213.983 0.885054 214.179 1.35362 214.179 1.8422Z" fill="#231F20"/>
<path d="M222.999 5.58931C223.003 5.95452 222.898 6.31282 222.696 6.61851C222.495 6.92419 222.206 7.16352 221.867 7.30617C221.528 7.44881 221.154 7.48833 220.793 7.41963C220.431 7.35093 220.098 7.17708 219.837 6.9203C219.575 6.66352 219.396 6.33539 219.322 5.97748C219.249 5.61957 219.285 5.24805 219.424 4.91021C219.564 4.57237 219.802 4.28345 220.108 4.08008C220.414 3.87672 220.774 3.76809 221.142 3.76807C221.631 3.76804 222.1 3.95927 222.448 4.30023C222.795 4.64119 222.993 5.10437 222.999 5.58931Z" fill="#231F20"/>
<path d="M175.839 41.114V24.6181C176.081 22.8518 175.748 21.055 174.889 19.4892C174.474 18.8753 173.906 18.3776 173.241 18.044C172.576 17.7104 171.836 17.5521 171.091 17.5843C170.29 17.4744 169.474 17.5493 168.707 17.8033C167.94 18.0573 167.243 18.4835 166.669 19.0487C166.095 19.6138 165.661 20.3028 165.399 21.0618C165.138 21.8208 165.056 22.6295 165.161 23.4248V41.114H159.316V5.67285H165.183V15.1768C166.804 13.6952 168.929 12.8732 171.133 12.8741C179.299 12.8741 181.684 18.2751 181.684 24.0738V41.114" fill="#231F20"/>
<path d="M136.441 18.5891C136.441 17.668 136.441 17.6471 136.906 17.6053C137.733 17.5235 138.564 17.4885 139.396 17.5005H140.324C145.177 17.5005 148.026 21.8967 148.026 26.9836C148.026 31.6519 146.655 35.8806 140.324 36.2783H139.797C138.995 36.2783 137.897 36.2783 136.821 36.1318C136.42 36.1318 136.441 36.1318 136.441 35.6503V18.5891ZM153.555 26.8371C153.614 22.9543 152.249 19.1825 149.714 16.2236C148.534 15.0072 147.097 14.065 145.506 13.4642C143.916 12.8634 142.211 12.6191 140.514 12.7486C140.514 12.7486 136.146 12.7486 134.184 12.9998C132.221 13.251 130.85 14.0883 130.85 16.412V51.9998H136.42V41.6165C136.885 41.6165 138.108 41.784 139.839 41.784C141.722 41.8837 143.604 41.5737 145.354 40.8758C147.103 40.1779 148.678 39.1089 149.968 37.7437C152.499 34.7576 153.776 30.92 153.534 27.0256" fill="#231F20"/>
<path d="M118.823 41.1143V24.6183C119.058 22.8498 118.718 21.0529 117.852 19.4895C117.441 18.8748 116.878 18.3749 116.217 18.0378C115.555 17.7006 114.818 17.5373 114.075 17.5636C110.065 17.5636 109.348 19.657 109.348 23.4251V41.1143H103.482V23.4041C103.482 19.6151 102.828 17.6055 98.734 17.6055C98.017 17.5575 97.2996 17.6919 96.6496 17.996C95.9997 18.3 95.4388 18.7636 95.0201 19.3429C94.1311 21.0442 93.7435 22.9597 93.9017 24.8695V41.1353H88.0566V25.058C88.0566 19.5733 88.7952 17.5427 91.2219 15.3656C93.3899 13.5818 96.1673 12.6953 98.977 12.8903C101.787 13.0852 104.413 14.3465 106.309 16.4123C107.274 15.3282 108.454 14.4541 109.776 13.8452C111.098 13.2363 112.533 12.9058 113.99 12.8744C122.178 12.8744 124.541 18.2963 124.541 24.095V41.1353" fill="#231F20"/>
<path d="M79.2353 38.3298C78.1113 39.467 76.7575 40.3553 75.2627 40.9362C73.7679 41.5171 72.1661 41.7774 70.5626 41.7001C68.9261 41.7498 67.2966 41.4651 65.7757 40.8637C64.2547 40.2623 62.8746 39.357 61.7211 38.2042C60.6573 37.0292 59.848 35.6499 59.3435 34.1519C58.8389 32.6539 58.6499 31.0692 58.788 29.4957V13.23H64.6331V28.5327C64.6331 32.4264 65.1185 36.362 70.436 36.362C75.7536 36.362 76.3022 32.4264 76.3022 28.5327V13.23H82.1473V29.4957C82.2728 31.086 82.0802 32.685 81.5804 34.2011C81.0807 35.7172 80.2837 37.1204 79.2353 38.3298Z" fill="#231F20"/>
<path d="M51.8251 13.23H45.959V41.114H51.8251V13.23Z" fill="#231F20"/>
<path d="M52.2043 6.02905C52.1377 6.85812 51.7587 7.63192 51.1428 8.19617C50.5268 8.76042 49.7193 9.0737 48.8809 9.0737C48.0425 9.0737 47.235 8.76042 46.6191 8.19617C46.0031 7.63192 45.6241 6.85812 45.5574 6.02905C45.5208 5.57398 45.5796 5.11633 45.7301 4.6849C45.8805 4.25347 46.1193 3.85758 46.4315 3.52219C46.7437 3.1868 47.1224 2.9192 47.544 2.73614C47.9655 2.55309 48.4207 2.4585 48.8809 2.4585C49.3411 2.4585 49.7962 2.55309 50.2178 2.73614C50.6393 2.9192 51.0181 3.1868 51.3303 3.52219C51.6425 3.85758 51.8813 4.25347 52.0317 4.6849C52.1822 5.11633 52.2409 5.57398 52.2043 6.02905Z" fill="#231F20"/>
<path d="M38.8484 17.8147C34.2061 18.0031 33.573 21.3315 33.573 24.8275V41.1142H27.7279V25.3299C27.4679 22.0128 28.469 18.7194 30.5344 16.0981C31.572 14.9204 32.882 14.01 34.3521 13.4449C35.8222 12.8798 37.4085 12.6768 38.975 12.8533H40.3677V17.8147C39.8337 17.7793 39.2979 17.7793 38.764 17.8147" fill="#231F20"/>
<path d="M18.1895 10.6761V41.1141H12.3233V10.6761H0V5.67285H30.7238V10.6761" fill="#231F20"/>
</svg>
