<svg width="149" height="154" viewBox="0 0 149 154" fill="none" xmlns="http://www.w3.org/2000/svg">
<path d="M78.8793 40.0421C79.4862 40.1808 80.1163 40.1808 80.7233 40.0421C79.7763 39.4152 78.8544 38.8135 77.8576 38.2118C77.8049 38.5775 77.8773 38.9503 78.063 39.2692C78.2486 39.5882 78.5365 39.8341 78.8793 39.9668V40.0421ZM76.3875 92.8965V80.0088C75.0675 78.8725 73.5794 77.9503 71.9768 77.2758L72.2012 92.8463C73.524 92.4333 74.94 92.4333 76.2628 92.8463L76.3875 92.8965ZM71.8523 77.1253C70.8057 76.5737 69.7591 75.8466 68.6627 75.3702C66.7946 76.8212 65.347 78.7495 64.4706 80.9543C63.5941 83.159 63.3207 85.5597 63.679 87.9068C63.8952 89.8135 64.6019 91.6304 65.7293 93.1782C66.8568 94.7261 68.366 95.9512 70.1079 96.7326C70.1079 95.8801 70.6561 95.1781 70.7309 94.4008C69.5566 93.6201 68.5755 92.5793 67.8628 91.358C67.1501 90.1368 66.7248 88.7675 66.6194 87.3553C66.4862 85.3383 66.8976 83.3226 67.81 81.5217C68.7224 79.7208 70.102 78.2017 71.8025 77.1253H71.8523ZM73.9704 98.6382C74.6314 98.4361 75.3378 98.4405 75.9963 98.6509C76.6548 98.8613 77.2343 99.2677 77.6583 99.8166C78.3311 101.271 78.4557 100.544 79.8262 99.9921C79.3445 99.1504 78.5869 98.5034 77.6832 98.1618C77.4347 97.5247 77.0992 96.9255 76.6865 96.3816C76.3392 96.0494 75.9193 95.8038 75.4606 95.6645C75.0019 95.5251 74.5171 95.4959 74.0451 95.5792C72.5251 95.5792 71.8772 97.2592 71.5533 98.5129C71.0549 98.9391 70.2824 99.215 70.0581 99.7917L71.3539 100.594C72.0119 99.6826 72.9349 98.9993 73.9953 98.6382H73.9704ZM92.7838 72.5119C93.1851 72.5247 93.5791 72.6229 93.9399 72.8001C94.3007 72.9773 94.6201 73.2294 94.877 73.5399C95.1831 73.0629 95.5852 72.6558 96.0573 72.3448C96.5295 72.0339 97.0611 71.8261 97.618 71.7347C98.397 71.6422 99.1862 71.7718 99.8955 72.1087C100.605 72.4456 101.206 72.9762 101.63 73.6401C102.253 72.9882 103 72.888 103.598 72.4367C103.368 72.0855 103.038 71.8119 102.652 71.651C102.266 71.4901 101.84 71.4494 101.431 71.5341L101.007 70.4057C100.584 69.6607 99.9509 69.0586 99.1879 68.6757C98.6655 68.4831 98.1028 68.4281 97.5533 68.5159C97.0038 68.6037 96.4856 68.8313 96.0481 69.1772C94.9268 69.7288 95.6744 71.6845 94.0297 71.3836C93.7805 71.3836 92.8835 71.835 92.7838 72.5119ZM98.9387 37.8356C101.954 39.8916 105.069 42.6246 107.984 45.0567C108.422 45.4335 108.937 45.7076 109.493 45.8594C110.049 46.0111 110.632 46.0367 111.199 45.9342C108.444 43.2629 105.54 40.7515 102.502 38.4122C101.983 38.0655 101.401 37.827 100.788 37.7107C100.176 37.5945 99.5475 37.6029 98.9387 37.7354V37.8356ZM110.077 49.7705C109.69 49.8875 109.33 50.0836 109.022 50.3468C108.713 50.61 108.462 50.9345 108.283 51.2999C108.056 51.8103 107.961 52.3707 108.009 52.9279C108.057 53.4852 108.246 54.0209 108.557 54.4843C108.901 54.9226 109.355 55.2606 109.872 55.4634C110.389 55.6662 110.95 55.7262 111.498 55.6376C112.01 55.4859 112.483 55.2201 112.88 54.8598C113.276 54.4996 113.588 54.0542 113.79 53.5566C113.995 52.6296 113.835 51.6585 113.342 50.8486C112.965 50.364 112.453 50.0028 111.872 49.8109C111.291 49.619 110.666 49.6049 110.077 49.7705ZM78.5554 36.7826C79.2934 37.6272 80.2289 38.2735 81.2774 38.6631C82.3259 39.0527 83.4543 39.1732 84.5607 39.014C82.7417 37.8857 81.0223 35.9301 78.5554 36.7826ZM106.763 51.977C107.027 51.8091 107.228 51.5585 107.337 51.264C107.445 50.9694 107.453 50.6472 107.361 50.3471C107.276 50.0966 107.129 49.8725 106.932 49.6967C106.735 49.5209 106.497 49.3994 106.24 49.3441C105.97 49.3402 105.703 49.4077 105.467 49.5397C105.231 49.6717 105.034 49.8637 104.894 50.0965C104.809 50.3918 104.797 50.7033 104.858 51.0046C104.918 51.3058 105.051 51.5878 105.243 51.8265C105.453 52.0005 105.71 52.1076 105.98 52.1344C106.251 52.1612 106.524 52.1065 106.763 51.977ZM82.3429 35.6291C84.3613 37.0082 86.5293 39.0641 89.37 38.2618C87.3516 36.9831 85.2086 34.7516 82.3429 35.6291ZM85.9811 33.9744C87.6756 35.0776 89.4448 36.1807 91.2638 37.1335C92.2995 37.5327 93.4354 37.5855 94.5032 37.2839C92.4433 35.7094 90.158 34.4583 87.7253 33.5731C87.0276 33.4227 86.6041 33.9242 85.9811 33.9744ZM93.8802 38.989C95.6896 40.4786 97.6144 41.82 99.6364 43.0007C100.515 43.1889 101.424 43.1889 102.303 43.0007C99.6115 41.6217 97.319 37.8105 93.8802 39.014V38.989ZM52.9142 42.9756H53.6618C56.1536 43.5272 57.8232 41.1954 59.5924 39.9919H57.6487C55.6801 40.2426 54.509 41.9476 52.9142 42.9505V42.9756ZM63.8285 39.0642C64.9352 39.2304 66.0658 39.113 67.1155 38.7229C68.1652 38.3328 69.1001 37.6827 69.8339 36.8326C67.342 36.0052 65.6476 37.9609 63.8285 39.0642ZM69.6096 40.0923C69.9525 39.9596 70.2403 39.7136 70.426 39.3947C70.6116 39.0758 70.684 38.7029 70.6313 38.3371C69.6345 38.9389 68.7126 39.5406 67.7657 40.1925C68.3712 40.3433 69.0041 40.3433 69.6096 40.1925V40.0923ZM59.094 38.3871C61.9347 39.1895 64.0777 37.1335 66.1459 35.8798C63.2554 34.8267 61.1124 37.0584 59.094 38.3371V38.3871ZM60.7635 33.7236C58.325 34.5843 56.0374 35.8284 53.9857 37.4094C55.0415 37.7263 56.1719 37.6821 57.2002 37.2839C59.0192 36.3311 60.8134 35.203 62.5078 34.1248C61.8849 34.1248 61.4612 33.5731 60.7635 33.7236ZM45.8124 38.5627C42.7741 40.902 39.8705 43.4134 37.1158 46.0846C37.6828 46.1854 38.2649 46.1591 38.8205 46.0074C39.3762 45.8557 39.8917 45.5824 40.3303 45.2071C43.2458 42.6998 46.3606 40.042 49.3758 37.986C48.7672 37.8506 48.1376 37.8408 47.5251 37.9571C46.9127 38.0735 46.33 38.3137 45.8124 38.6631V38.5627ZM49.002 36.5317C49.8945 36.7465 50.8298 36.6942 51.6932 36.3813C54.1131 34.8593 56.6081 33.4618 59.1687 32.1941L57.3746 31.8682C54.3245 32.8787 51.492 34.4611 49.0269 36.5317H49.002ZM45.5881 71.4338C44.9652 71.5843 44.0682 71.86 44.0183 72.5871C44.8213 72.6225 45.5836 72.9525 46.1613 73.5148C46.4383 73.0715 46.8021 72.6895 47.2305 72.3921C47.6588 72.0947 48.1429 71.888 48.6531 71.7847C49.4494 71.672 50.2611 71.7779 51.0024 72.0913C51.7437 72.4046 52.3871 72.9139 52.8644 73.565L53.9857 73.0635C54.3097 72.8629 54.808 72.8378 54.8578 72.3865C54.5934 72.0525 54.2487 71.7921 53.8562 71.6297C53.4637 71.4673 53.0366 71.4085 52.6152 71.4588C52.5249 70.9475 52.3297 70.4607 52.042 70.0296C51.7098 69.544 51.2623 69.1498 50.74 68.8827C50.2178 68.6156 49.6375 68.484 49.0518 68.5001C48.5832 68.5097 48.1247 68.639 47.7193 68.8758C47.3139 69.1127 46.975 69.4494 46.7344 69.8542C46.2361 70.3306 46.4603 71.5843 45.5633 71.4338H45.5881ZM68.4135 41.3459C67.6376 41.1169 66.8144 41.1056 66.0326 41.3133C65.2508 41.521 64.5404 41.9397 63.978 42.5243C65.7472 43.5272 67.2673 42.1482 68.5879 41.396L68.4135 41.3459ZM45.9868 42.9005C46.8657 43.0887 47.7742 43.0887 48.6531 42.9005C50.6751 41.7198 52.6 40.3782 54.4093 38.8886C50.8709 37.7102 48.678 41.3961 45.9868 42.9005ZM40.43 104.907C40.443 105.2 40.527 105.486 40.6746 105.739C40.8222 105.993 41.0291 106.206 41.2773 106.361C41.5309 106.476 41.8125 106.513 42.0871 106.469C42.3618 106.424 42.6174 106.299 42.8222 106.11C43.0385 105.872 43.1668 105.567 43.1856 105.245C43.2044 104.923 43.1126 104.604 42.9255 104.343C42.7385 104.081 42.4675 103.892 42.1583 103.807C41.8491 103.723 41.5203 103.748 41.2274 103.878C40.8038 104.129 40.4051 104.38 40.43 104.907ZM62.8567 40.2676C61.0626 40.067 59.9412 41.5464 58.5956 42.4992C59.6353 42.6512 60.6964 42.5328 61.6779 42.1553C62.6593 41.7779 63.5283 41.154 64.2023 40.3429C63.7541 40.3679 63.3049 40.3679 62.8567 40.3429V40.2676ZM41.5265 51.977C41.7527 52.1248 42.0167 52.2034 42.2865 52.2034C42.5562 52.2034 42.8202 52.1248 43.0465 51.977C43.2409 51.7393 43.3744 51.4573 43.4352 51.1556C43.496 50.854 43.4824 50.542 43.3954 50.2469C43.2948 49.9779 43.1087 49.7499 42.8661 49.5983C42.6234 49.4468 42.3378 49.3801 42.0536 49.4087C41.7694 49.4373 41.5026 49.5595 41.2946 49.7564C41.0866 49.9533 40.9492 50.2139 40.9035 50.4976C40.8064 50.791 40.8101 51.1087 40.914 51.3997C41.0179 51.6907 41.2161 51.9382 41.4766 52.1023L41.5265 51.977ZM94.5779 42.9505H95.3006C93.7307 41.9726 92.5595 40.2426 90.591 39.9919H88.6225C90.6658 41.2455 92.3104 43.5523 94.8271 43.0007L94.5779 42.9505ZM57.873 79.8333C58.783 77.392 60.2413 75.1953 62.1341 73.4146C61.6387 73.2003 61.0995 73.1088 60.5617 73.1481C60.024 73.1874 59.5036 73.3561 59.0442 73.6401C58.5443 74.1475 58.1692 74.7655 57.9485 75.4446C57.7279 76.1236 57.6679 76.845 57.7733 77.5515C57.1504 77.5515 56.5523 77.2256 55.9792 77.1002C56.3117 76.5159 56.4266 75.8315 56.3031 75.1697C56.1735 74.944 55.9935 74.7517 55.7772 74.6081C55.561 74.4645 55.3144 74.3734 55.0572 74.3422C54.8014 74.3711 54.5542 74.4528 54.3313 74.5822C54.1083 74.7116 53.9142 74.886 53.7614 75.0944C53.6114 75.3012 53.5129 75.5413 53.4739 75.7942C53.4348 76.0472 53.4565 76.3059 53.5371 76.5487C52.9482 76.6348 52.3473 76.5657 51.7929 76.3481C52.0421 75.7376 52.0421 75.0529 51.7929 74.4425C51.5989 74.0625 51.3117 73.7387 50.9584 73.5018C50.6052 73.2648 50.1977 73.1226 49.7745 73.0886C49.4074 73.0827 49.0431 73.1531 48.7044 73.2955C48.3656 73.4379 48.0597 73.6492 47.8059 73.916C47.5521 74.2158 47.3778 74.5753 47.2994 74.9611C47.2209 75.3469 47.2409 75.7465 47.3574 76.1225C46.7003 76.3102 46.0219 76.4113 45.339 76.4234C45.4711 75.8273 45.3825 75.2032 45.0898 74.6682C44.9289 74.4857 44.7281 74.3432 44.5033 74.2518C44.2785 74.1604 44.0357 74.1227 43.794 74.1416C43.5755 74.2159 43.3745 74.3343 43.2031 74.4895C43.0317 74.6447 42.8936 74.8334 42.7973 75.0442C42.624 75.6655 42.6954 76.3301 42.9966 76.8998C42.5232 76.8998 42.1245 77.4262 41.6012 77.2507C41.7472 76.3935 41.607 75.5119 41.2025 74.7433C40.8661 74.2527 40.3808 73.8851 39.8193 73.6952C39.2578 73.5054 38.6503 73.5036 38.0877 73.6903C39.4209 75.73 40.5163 77.9175 41.352 80.2094C46.7227 78.4644 52.484 78.3423 57.9228 79.8584L57.873 79.8333ZM119.322 99.8919C119.721 99.0645 119.197 98.3374 118.649 97.7105C118.076 97.4849 117.403 97.0335 116.731 97.3846C114.862 98.2872 114.612 100.594 113.566 102.173C112.791 103.584 111.899 104.926 110.9 106.185C112.843 105.207 115.285 105.258 117.179 104.104C117.392 103.909 117.54 103.653 117.602 103.37C117.665 103.087 117.639 102.792 117.528 102.525C117.528 102.123 117.005 102.073 116.83 101.672C117.36 101.609 117.866 101.413 118.302 101.102C118.737 100.791 119.088 100.375 119.322 99.8919ZM24.9307 80.4099C23.6599 83.5692 27.7216 84.3465 29.0423 86.7284C29.0507 85.6389 28.9251 84.5526 28.6685 83.494C28.2698 80.9867 28.8927 78.0281 27.6966 75.9721C27.227 75.5423 26.612 75.3091 25.9772 75.3201C25.4084 75.4918 24.9046 75.8326 24.532 76.2979C24.3596 76.6263 24.2695 76.9922 24.2695 77.3636C24.2695 77.735 24.3596 78.1008 24.532 78.4292C24.532 79.1814 26.5504 79.8333 25.0303 80.5103L24.9307 80.4099ZM31.1105 102.575C31.0031 102.843 30.9791 103.137 31.0413 103.419C31.1036 103.701 31.2494 103.957 31.4594 104.154C33.3532 105.308 35.7952 105.257 37.7637 106.235C36.7371 104.991 35.8356 103.647 35.0725 102.224C34.0508 100.644 33.8017 98.3374 31.9328 97.4348C31.2351 97.0837 30.5872 97.4348 29.9892 97.7607C29.4659 98.3876 28.9176 99.1147 29.3163 99.9421C29.5504 100.425 29.9013 100.841 30.3366 101.152C30.772 101.463 31.2779 101.659 31.8082 101.722C31.6587 102.148 31.2101 102.174 31.1105 102.575ZM39.8319 99.1146C39.5578 98.4126 38.885 98.4126 38.3618 98.0365C38.6833 97.232 38.6833 96.3336 38.3618 95.5292C38.1723 95.3067 37.9372 95.1281 37.6727 95.0056C37.4082 94.8832 37.1205 94.8199 36.8293 94.8199C36.5381 94.8199 36.2504 94.8832 35.9859 95.0056C35.7214 95.1281 35.4863 95.3067 35.2968 95.5292C35.0802 95.8045 34.9311 96.1274 34.8619 96.4716C34.7926 96.8157 34.805 97.1715 34.8981 97.5099C35.8463 100.397 37.3444 103.072 39.3087 105.383C39.0595 103.202 40.3553 101.321 39.8569 99.1898L39.8319 99.1146ZM28.195 58.521C27.1734 61.0284 29.3911 63.1595 29.8147 65.4913C30.9404 62.4646 32.2639 59.5164 33.7768 56.6656C33.909 56.3036 33.948 55.9138 33.8899 55.5326C33.8319 55.1513 33.6787 54.791 33.4447 54.4855C33.2108 54.18 32.9037 53.9392 32.5521 53.7855C32.2006 53.6318 31.816 53.5702 31.4344 53.6066C31.2292 53.6326 31.0311 53.6992 30.8514 53.8025C30.6718 53.9058 30.5143 54.0436 30.3879 54.2084C30.0543 54.7848 29.8582 55.4315 29.815 56.0971C29.7717 56.7628 29.8825 57.4294 30.1387 58.0446C29.3911 58.0446 28.6685 57.8942 28.195 58.521ZM113.79 97.3846C113.879 97.0458 113.89 96.6908 113.821 96.3473C113.752 96.0038 113.605 95.681 113.391 95.4038C113.202 95.1814 112.967 95.0027 112.702 94.8803C112.438 94.7579 112.15 94.6945 111.859 94.6945C111.568 94.6945 111.28 94.7579 111.016 94.8803C110.751 95.0027 110.516 95.1814 110.326 95.4038C110.158 95.8 110.071 96.2265 110.071 96.6575C110.071 97.0885 110.158 97.515 110.326 97.9112C109.803 98.3123 109.155 98.3123 108.881 99.0144C108.383 101.146 109.679 103.026 109.429 105.207C111.384 102.89 112.881 100.217 113.84 97.3344L113.79 97.3846ZM68.3637 52.6538C69.1695 52.365 70.0497 52.365 70.8555 52.6538C70.874 51.9009 70.5964 51.171 70.0831 50.6229C69.4352 49.7203 67.9899 50.4474 67.5912 49.3692C67.3467 49.0738 67.0289 48.8486 66.6701 48.7165C66.3113 48.5844 65.9241 48.5501 65.5479 48.6171C63.4635 49.2651 61.3 49.6195 59.1189 49.6701C59.6805 50.209 60.2893 50.6958 60.9379 51.1244C60.6389 51.3751 60.2651 51.4754 59.991 51.701C58.5522 52.5317 57.3967 53.781 56.6762 55.2845C55.9558 56.788 55.7041 58.4757 55.9542 60.1258C56.9011 68.2746 65.5977 71.3585 71.4037 74.8186C75.291 77.1254 80.5489 79.4321 81.5456 84.522C82.0348 86.3161 82.0039 88.2136 81.4564 89.9907C80.9089 91.7677 79.8677 93.3502 78.4557 94.5513C78.8359 95.269 79.1609 96.015 79.4275 96.7828C81.1957 95.7412 82.6375 94.2209 83.5889 92.395C84.5667 90.317 85.0106 88.0253 84.88 85.7299C84.7494 83.4345 84.0484 81.2088 82.8413 79.2567C77.8576 72.4618 69.4601 71.1579 63.38 66.0179C62.2988 65.1831 61.465 64.0668 60.9687 62.7896C60.4724 61.5125 60.3325 60.1231 60.5642 58.7717C60.7563 57.9011 61.1838 57.1009 61.7994 56.4593C62.415 55.8178 63.1948 55.3599 64.0528 55.1362C65.3734 54.5094 64.9249 56.2895 65.8718 56.5903C66.528 56.8528 67.259 56.8528 67.9152 56.5903C68.1046 56.5061 68.2738 56.382 68.4114 56.2263C68.5489 56.0705 68.6516 55.8869 68.7125 55.6877H68.264C67.7656 55.3869 67.0929 54.9606 67.1427 54.2586C67.1997 53.9045 67.3314 53.5669 67.5292 53.2684C67.7269 52.97 67.986 52.7176 68.2889 52.5285L68.3637 52.6538ZM63.081 50.4224C64.1391 49.9546 65.2906 49.7401 66.445 49.7956L66.9433 50.3471C66.3515 50.6741 65.6873 50.8456 65.0121 50.8456C64.337 50.8456 63.6728 50.6741 63.081 50.3471V50.4224ZM79.9757 41.2957C81.1967 42.073 82.7417 43.4269 84.4112 42.4992C83.842 41.9257 83.1291 41.518 82.3482 41.3193C81.5672 41.1206 80.7474 41.1384 79.9757 41.3709V41.2957ZM131.557 38.2618C130.686 38.6906 129.922 39.3092 129.318 40.0725C128.715 40.8358 128.288 41.7247 128.068 42.6747C127.63 44.3596 127.835 46.1486 128.642 47.6894C129.05 48.5087 129.618 49.2372 130.311 49.8316C131.005 50.4259 131.81 50.8741 132.678 51.1495C133.529 51.4502 134.433 51.5655 135.331 51.4877C136.229 51.4099 137.1 51.1407 137.886 50.6982C138.692 50.2911 139.406 49.7197 139.98 49.0205C140.555 48.3212 140.979 47.5093 141.225 46.6363C141.5 45.7688 141.602 44.8552 141.525 43.948C141.448 43.0407 141.194 42.1577 140.777 41.3494C140.361 40.5412 139.79 39.8236 139.097 39.2379C138.404 38.6521 137.603 38.2096 136.74 37.9358C135.896 37.6375 134.999 37.5191 134.107 37.5882C133.214 37.6572 132.346 37.9123 131.557 38.3371V38.2618ZM136.217 39.691C136.843 39.8883 137.423 40.2126 137.92 40.6438C138.417 41.075 138.821 41.604 139.107 42.1983C139.694 43.374 139.799 44.7347 139.398 45.987C138.997 47.2393 138.123 48.2829 136.964 48.8928C135.811 49.5191 134.46 49.6633 133.202 49.2941C132.572 49.1037 131.989 48.782 131.491 48.35C130.993 47.918 130.591 47.3854 130.311 46.7868C130.018 46.2243 129.839 45.6089 129.783 44.9764C129.728 44.3438 129.797 43.7064 129.987 43.1009C130.173 42.4654 130.482 41.8732 130.896 41.3585C131.31 40.8437 131.822 40.4168 132.401 40.1021C132.98 39.7873 133.616 39.5912 134.27 39.525C134.925 39.4587 135.587 39.5237 136.217 39.7161V39.691ZM76.7612 36.933C75.104 37.0978 73.4347 37.0978 71.7775 36.933H71.628V44.455L71.9768 68.8261V69.2774C74.6753 70.4223 77.2546 71.8333 79.6767 73.4897C82.2097 72.2304 84.635 70.7628 86.9279 69.1019C88.8295 67.8414 90.3463 66.0751 91.3097 63.9991C92.2732 61.923 92.6454 59.6187 92.3851 57.3425C92.0981 55.9664 91.499 54.6757 90.6345 53.571C89.7701 52.4662 88.6635 51.5775 87.4014 50.974C87.9745 50.4976 88.6474 50.1966 89.1707 49.6701V49.5197C86.4545 49.8707 84.187 48.5418 81.6951 48.7424C81.0472 48.7424 80.6485 49.4195 80.4492 49.946C79.7684 49.9356 79.0973 50.1086 78.5055 50.4474C78.1837 50.7258 77.9273 51.0727 77.7549 51.4629C77.5825 51.8532 77.4984 52.2771 77.5087 52.704C78.3613 52.4408 79.2727 52.4408 80.1252 52.704C80.4132 52.8749 80.6605 53.1071 80.8499 53.3843C81.0393 53.6615 81.1662 53.977 81.2216 54.3087C81.2281 54.5593 81.1721 54.8076 81.059 55.0309C80.9458 55.2542 80.7791 55.4455 80.5737 55.5875C80.3246 55.8633 79.6269 55.7629 79.7265 56.2393C80.017 56.5579 80.3906 56.788 80.8048 56.9033C81.2189 57.0186 81.657 57.0144 82.0689 56.8912C82.434 56.7457 82.7597 56.5154 83.0195 56.2191C83.2793 55.9228 83.4659 55.5689 83.564 55.1862C84.2866 54.9606 84.8847 55.5122 85.5824 55.6376C86.3522 56.125 86.9852 56.8026 87.4213 57.6057C87.8575 58.4088 88.0823 59.3108 88.0742 60.226C88.0742 63.9619 84.9345 66.5444 82.0689 68.3246C80.3296 69.5109 78.496 70.5509 76.5868 71.4338L76.8858 44.0037L76.7612 36.933ZM81.5207 50.3471C81.6888 50.1066 81.9108 49.9091 82.1686 49.7705C83.2679 49.6954 84.3677 49.9115 85.3581 50.3973C84.7748 50.7362 84.113 50.9146 83.4394 50.9146C82.7657 50.9146 82.104 50.7362 81.5207 50.3973V50.3471ZM135.868 78.6548H137.737V74.7433L149 74.4927V72.4868L135.868 72.7375V78.6548ZM119.197 33.874L123.882 29.8121L127.57 34.1749L122.96 38.1365L124.256 39.6659L134.223 30.9907L132.928 29.4611L129.015 32.8461L125.327 28.4833L129.24 25.0984L127.944 23.5689L117.976 32.2443L119.197 33.874ZM34.6987 53.6066C34.9043 54.1024 35.2166 54.5462 35.6129 54.906C36.0093 55.2659 36.4801 55.5328 36.9913 55.6877C37.5427 55.7758 38.1075 55.7155 38.6283 55.513C39.1491 55.3104 39.6074 54.9727 39.9566 54.5343C40.264 54.0687 40.4481 53.532 40.4917 52.9747C40.5353 52.4175 40.4369 51.8584 40.2057 51.3501C40.0289 50.9881 39.781 50.6659 39.4769 50.403C39.1728 50.1401 38.8189 49.9419 38.4365 49.8205C37.8436 49.6564 37.2158 49.6711 36.631 49.8628C36.0463 50.0544 35.5303 50.4147 35.1472 50.8988C34.6663 51.7132 34.5063 52.6793 34.6987 53.6066ZM124.156 78.3539C124.304 78.0139 124.369 77.6437 124.348 77.2733C124.326 76.903 124.218 76.543 124.032 76.2227C123.671 75.7446 123.163 75.4006 122.586 75.2448C121.96 75.2402 121.355 75.473 120.892 75.8968C119.696 78.0531 120.319 80.9114 119.895 83.4187C119.634 84.4761 119.517 85.5641 119.546 86.6531C120.842 84.2712 124.929 83.494 123.658 80.3348C122.138 79.6578 124.231 79.0059 124.156 78.2537V78.3539ZM139.107 53.9075C138.158 54.096 137.264 54.4985 136.491 55.0848C135.718 55.671 135.088 56.4259 134.647 57.2925C133.813 58.8225 133.574 60.6094 133.974 62.3071C134.168 63.2074 134.539 64.0594 135.065 64.8131C135.592 65.5667 136.263 66.2066 137.039 66.6949C137.789 67.1983 138.636 67.5366 139.525 67.6878C140.414 67.8391 141.325 67.7997 142.197 67.5724C143.079 67.3784 143.911 67.0017 144.641 66.4665C145.37 65.9312 145.98 65.249 146.433 64.4634C147.389 62.8983 147.693 61.0168 147.277 59.2279C146.862 57.439 145.762 55.8874 144.216 54.9105C143.474 54.4099 142.636 54.0711 141.756 53.9156C140.877 53.7601 139.974 53.7916 139.107 54.0079V53.9075ZM143.269 56.4148C143.825 56.7504 144.306 57.1974 144.683 57.7279C145.06 58.2583 145.325 58.8612 145.462 59.4989C145.628 60.129 145.661 60.7873 145.558 61.431C145.455 62.0747 145.219 62.6894 144.864 63.2348C144.169 64.3643 143.057 65.1703 141.772 65.4759C140.488 65.7814 139.135 65.5615 138.011 64.8645C137.453 64.5249 136.971 64.0739 136.594 63.539C136.217 63.0042 135.953 62.3971 135.818 61.7554C135.669 61.1402 135.644 60.5009 135.747 59.876C135.85 59.2512 136.078 58.6537 136.416 58.1198C136.742 57.532 137.192 57.0232 137.735 56.6291C138.277 56.2349 138.899 55.965 139.556 55.8382C140.181 55.6728 140.833 55.6387 141.472 55.7379C142.111 55.8372 142.722 56.0675 143.269 56.4148ZM105.343 83.519C105.662 82.8808 105.833 82.1777 105.841 81.4631C100.779 79.8713 95.3543 79.8713 90.292 81.4631C90.5162 82.0649 90.292 82.8922 90.7405 83.2934C95.5477 82.0712 100.594 82.1838 105.343 83.6194V83.519ZM107.162 106.311C107.41 106.158 107.616 105.945 107.759 105.69C107.903 105.436 107.98 105.149 107.984 104.856C107.984 104.33 107.61 104.079 107.187 103.828C106.844 103.708 106.469 103.715 106.131 103.848C105.793 103.982 105.513 104.233 105.343 104.555C105.265 104.808 105.248 105.076 105.291 105.337C105.334 105.598 105.437 105.846 105.592 106.06C105.801 106.252 106.061 106.377 106.34 106.422C106.619 106.466 106.904 106.428 107.162 106.311ZM99.3872 108.968C98.9485 108.883 98.4941 108.945 98.0936 109.144C97.693 109.343 97.3684 109.669 97.1695 110.072C96.8479 110.638 96.5809 111.234 96.3721 111.852C95.9161 111.805 95.4555 111.862 95.0243 112.018C94.593 112.175 94.2021 112.426 93.8802 112.754C92.8087 114.359 93.2573 116.541 92.136 118.12C93.4816 117.393 94.8022 116.566 96.2226 115.613C98.0915 114.384 101.331 113.105 100.683 110.222C100.562 109.922 100.38 109.651 100.148 109.426C99.9164 109.201 99.6401 109.028 99.3374 108.918L99.3872 108.968ZM105.218 86.4025C105.303 86.1955 105.314 85.9656 105.251 85.7512C105.187 85.5367 105.053 85.3507 104.869 85.2241C100.686 83.8767 96.2187 83.6861 91.9366 84.6724C91.6376 84.8229 91.189 85.0736 91.0894 85.4497C91.0451 85.6567 91.0671 85.8724 91.1521 86.0661C91.2372 86.2598 91.3809 86.4214 91.5628 86.5278C95.0399 87.7168 98.756 88.0184 102.377 87.4055C103.399 87.4055 104.545 87.4054 105.218 86.4025ZM89.5942 42.4992C88.2736 41.5213 87.1024 39.9918 85.3581 40.2676C84.9099 40.292 84.4607 40.292 84.0125 40.2676C84.6841 41.0747 85.549 41.6963 86.5257 42.0736C87.5023 42.4509 88.5584 42.5716 89.5942 42.424V42.4992ZM107.959 73.6401C107.365 74.1049 106.91 74.7248 106.642 75.4322C106.374 76.1395 106.304 76.9073 106.439 77.6519L104.545 77.2507C104.791 76.6336 104.942 75.9827 104.994 75.3201C104.745 75.0193 104.545 74.593 104.097 74.5429C103.807 74.4661 103.5 74.4775 103.216 74.5756C102.933 74.6738 102.684 74.8543 102.502 75.0944C102.004 75.5457 102.353 76.2478 102.103 76.6991C101.521 76.6849 100.942 76.5921 100.384 76.4234C100.554 75.974 100.604 75.4877 100.53 75.0127C100.456 74.5377 100.259 74.0905 99.9604 73.7154C99.3125 73.4647 98.7892 72.9883 98.0167 73.0635C97.62 73.1221 97.2407 73.2669 96.9051 73.4877C96.5695 73.7085 96.2856 74.0001 96.0731 74.3422C95.8305 74.9025 95.7695 75.5254 95.8986 76.1225C95.2009 76.1225 94.6278 76.4985 93.9301 76.323C94.0192 75.9437 94.0192 75.5489 93.9301 75.1697C93.8456 74.8871 93.6841 74.6338 93.4639 74.4388C93.2437 74.2438 92.9736 74.1149 92.6842 74.0665C92.4602 74.0723 92.2404 74.1294 92.0418 74.2337C91.8431 74.338 91.6707 74.4866 91.5379 74.6682C91.3535 74.979 91.2562 75.3342 91.2562 75.6961C91.2562 76.0581 91.3535 76.4134 91.5379 76.7242C91.1002 76.9881 90.6027 77.1348 90.0926 77.1504C90.1304 76.2961 89.9948 75.4429 89.6939 74.6431C89.3524 74.1538 88.8737 73.778 88.3189 73.5636C87.7641 73.3492 87.1584 73.3061 86.5791 73.4396C87.8627 75.5366 88.9234 77.7636 89.7437 80.084C95.1463 78.43 100.908 78.3777 106.339 79.9335C106.663 79.2816 106.938 78.5797 107.261 77.9779C108.166 76.3657 109.289 74.8887 110.601 73.5901C110.163 73.3859 109.687 73.28 109.205 73.28C108.723 73.28 108.247 73.3859 107.81 73.5901L107.959 73.6401ZM115.883 85.1488C115.571 85.0688 115.242 85.0859 114.939 85.1978C114.637 85.3097 114.375 85.5111 114.189 85.7756C114.059 85.9959 113.991 86.2469 113.991 86.5027C113.991 86.7585 114.059 87.0097 114.189 87.2299C114.327 87.4526 114.524 87.632 114.758 87.7478C114.991 87.8636 115.253 87.911 115.512 87.8849C115.772 87.8588 116.019 87.7602 116.225 87.6001C116.432 87.44 116.589 87.2248 116.681 86.9791C116.681 86.252 116.681 85.4497 115.908 85.1488H115.883ZM109.504 57.5682C108.806 58.0446 108.906 58.8972 108.931 59.6494C109.203 60.2176 109.638 60.6907 110.18 61.008C110.722 61.3253 111.346 61.472 111.971 61.4295C111.847 62.0312 111.248 62.633 111.547 63.3602C112.27 65.3159 114.563 64.9398 116.083 65.6919L117.154 66.2937C116.242 63.0878 114.765 60.0729 112.793 57.3927C112.318 57.0143 111.721 56.8234 111.116 56.8557C110.51 56.888 109.937 57.1413 109.504 57.5682ZM117.777 86.3774C117.976 83.1429 119.197 79.2817 117.777 76.0723C117.536 75.7228 117.194 75.456 116.797 75.3081C116.401 75.1601 115.969 75.1381 115.559 75.2448C115.009 75.4785 114.546 75.8825 114.239 76.3983C114.077 76.8141 114.029 77.2656 114.099 77.7064C114.169 78.1472 114.355 78.5612 114.637 78.9056C114.837 79.1563 115.136 79.2817 115.136 79.5575C114.762 79.8584 114.289 80.1593 114.164 80.6608C113.641 83.0176 116.656 83.3436 117.304 85.2241L117.677 86.3022L117.777 86.3774ZM114.712 68.9765C114.996 68.9018 115.251 68.7418 115.442 68.5179C115.634 68.2939 115.753 68.0166 115.784 67.7229C115.782 67.4209 115.694 67.1258 115.531 66.8725C115.367 66.6192 115.135 66.4183 114.862 66.2937C114.543 66.2327 114.213 66.2695 113.916 66.3991C113.618 66.5288 113.366 66.7454 113.192 67.0209C113.082 67.2473 113.025 67.4959 113.025 67.748C113.025 68 113.082 68.2486 113.192 68.475C113.356 68.6936 113.581 68.8581 113.839 68.9475C114.096 69.0368 114.374 69.0469 114.637 68.9765H114.712ZM118.226 54.2084C118.11 54.0388 117.958 53.8972 117.781 53.7932C117.605 53.6892 117.408 53.6254 117.204 53.6066C116.571 53.5685 115.947 53.7748 115.46 54.1834C115.139 54.505 114.912 54.9083 114.802 55.35C114.693 55.7917 114.705 56.2553 114.837 56.6907C116.347 59.5461 117.679 62.4936 118.824 65.5164C119.222 63.1846 121.44 61.1287 120.418 58.5461C119.97 57.9193 119.222 58.0948 118.5 58.0697C118.747 57.4513 118.85 56.7845 118.803 56.1198C118.755 55.4551 118.558 54.81 118.226 54.2335V54.2084ZM122.312 72.2611C122.493 71.6624 122.548 71.0327 122.475 70.4114C122.403 69.7901 122.203 69.1905 121.889 68.6506C121.419 68.0574 120.783 67.6187 120.064 67.3909C119.345 67.1631 118.575 67.1565 117.852 67.3718C116.958 67.6804 116.206 68.3038 115.734 69.127C115.439 69.7004 115.285 70.3367 115.285 70.9824C115.285 71.6281 115.439 72.2645 115.734 72.8379C116.099 73.38 116.594 73.8204 117.173 74.1185C117.753 74.4166 118.398 74.5626 119.048 74.5429C119.734 74.4974 120.395 74.2596 120.954 73.8564C121.513 73.4532 121.949 72.9006 122.213 72.2611H122.312ZM122.312 64.7392C122.177 64.5844 122.01 64.4606 121.823 64.3757C121.636 64.2908 121.433 64.2468 121.228 64.2468C121.023 64.2468 120.821 64.2908 120.634 64.3757C120.447 64.4606 120.28 64.5844 120.144 64.7392C119.967 64.9925 119.873 65.2946 119.873 65.6043C119.873 65.9139 119.967 66.2159 120.144 66.4692C120.618 66.745 121.066 67.1211 121.64 66.8954C122.213 66.6698 122.312 66.3438 122.512 65.9677C122.586 65.7531 122.605 65.5228 122.565 65.299C122.526 65.0751 122.43 64.8652 122.287 64.6891L122.312 64.7392ZM56.3529 123.386C56.8513 123.386 57.1753 122.859 57.2999 122.408C57.3863 122.123 57.3925 121.82 57.3176 121.532C57.2428 121.245 57.09 120.983 56.8762 120.778C56.4548 120.482 55.942 120.349 55.431 120.402C55.1525 120.498 54.9068 120.672 54.7217 120.903C54.5366 121.133 54.4197 121.411 54.3844 121.706C54.3616 122.004 54.4109 122.304 54.5281 122.579C54.6452 122.854 54.8268 123.096 55.0572 123.285C55.5057 123.285 55.9044 123.661 56.3529 123.285V123.386ZM31.8829 32.0186L28.2199 27.9065V27.3299L35.6955 28.5083L37.664 26.7031L28.3944 25.3492L28.818 16.8493L26.8494 18.6545L26.5753 26.1765L23.0369 22.215L21.5667 23.5689L30.4127 33.4478L31.8829 32.0186ZM16.5581 40.6438C17.2602 41.1816 18.0659 41.5663 18.924 41.7735C19.782 41.9807 20.6735 42.0058 21.5418 41.8473C22.4278 41.714 23.2769 41.398 24.0359 40.9191C24.7949 40.4402 25.4474 39.8087 25.9524 39.0642C26.6956 38.0334 27.1516 36.8214 27.2731 35.5539L25.3294 34.1248C25.3294 34.5511 25.3294 34.9522 25.3294 35.3032C25.3157 35.6321 25.274 35.9593 25.2048 36.2811C25.074 36.884 24.81 37.4495 24.4323 37.9358C24.0732 38.4716 23.6057 38.9251 23.0603 39.2665C22.5149 39.6078 21.9041 39.8294 21.2677 39.9167C20.6265 40.0203 19.9711 39.9914 19.3413 39.8319C18.7116 39.6725 18.1207 39.3857 17.6047 38.989C17.0673 38.6082 16.61 38.124 16.2593 37.5646C15.9087 37.0052 15.6715 36.3814 15.5613 35.7294C15.4339 35.097 15.4389 34.4448 15.5762 33.8145C15.7135 33.1841 15.9801 32.5896 16.3587 32.0688C17.1674 31.0078 18.3242 30.2702 19.6231 29.9877L17.7292 28.6087C16.2352 29.2605 15.0195 30.4246 14.2985 31.8939C13.5775 33.3631 13.3981 35.0422 13.7921 36.6321C14.1716 38.2489 15.1183 39.6734 16.4584 40.6438H16.5581ZM41.8005 24.0453L38.6857 18.5794L43.6694 15.721L46.7095 21.1118L48.4289 20.1339L41.9251 8.55006L40.2057 9.5529L42.6976 14.0912L37.7139 16.9245L35.222 12.4113L33.5027 13.3892L40.0064 24.973L41.8005 24.0453ZM3.32632 62.7082L14.4151 65.0149L14.8138 63.0342L3.79978 60.7024L4.42274 57.7187L2.57879 57.3425L0.983972 65.2908L2.80305 65.6668L3.32632 62.7082ZM8.95793 71.7847C9.19601 71.7324 9.44244 71.7324 9.68051 71.7847C9.9699 71.7881 10.2557 71.8498 10.521 71.9661C10.7864 72.0823 11.026 72.2509 11.2255 72.4618C11.4206 72.6725 11.5699 72.9218 11.6643 73.1937C11.7587 73.4656 11.796 73.7542 11.7737 74.0414C11.7841 74.3927 11.7047 74.7407 11.5433 75.0523C11.3819 75.364 11.1438 75.6289 10.8517 75.8216C10.3545 76.0948 9.79842 76.2412 9.232 76.2478L9.60576 78.3039C10.6903 78.2094 11.7143 77.7603 12.5213 77.0251C13.2357 76.2561 13.6361 75.2445 13.6426 74.1918C13.6763 73.6281 13.599 73.0632 13.4151 72.5297C13.2312 71.9961 12.9444 71.5044 12.5711 71.0828C12.1923 70.6703 11.7341 70.3398 11.2243 70.1113C10.7145 69.8828 10.1638 69.7612 9.60576 69.7538C8.7809 69.6877 7.95955 69.9188 7.28836 70.4057C6.55316 71.0261 5.98002 71.818 5.61886 72.7124L5.0457 74.0163C4.59717 74.9691 4.0739 75.4203 3.42601 75.3953C3.20306 75.3983 2.98264 75.3475 2.7832 75.2471C2.58377 75.1468 2.41116 74.9999 2.27978 74.8186C1.98269 74.4144 1.84106 73.9157 1.88108 73.4146C1.8708 73.0252 1.97479 72.6415 2.18009 72.3113C2.46444 71.9451 2.83184 71.6527 3.25157 71.4588L2.35454 69.804C1.67449 70.1068 1.09356 70.5971 0.67903 71.2183C0.264495 71.8396 0.0333018 72.5663 0.0121887 73.3143C-0.068395 74.3558 0.25284 75.3883 0.909219 76.1976C1.20068 76.5855 1.57716 76.9004 2.00937 77.1178C2.44157 77.3353 2.91785 77.4494 3.40107 77.4513C4.163 77.4483 4.90477 77.2047 5.52175 76.7548C6.13872 76.305 6.59978 75.6716 6.83984 74.944L7.43786 73.6903C7.56996 73.3924 7.72842 73.1072 7.91132 72.8379C8.0667 72.629 8.24193 72.4358 8.43459 72.2611C8.6149 72.1264 8.81737 72.0246 9.03268 71.9603L8.95793 71.7847ZM52.2663 16.8995C53.8167 17.6649 55.5984 17.8082 57.25 17.3006C58.1311 17.0477 58.9531 16.6202 59.6677 16.0433C60.3823 15.4663 60.9751 14.7514 61.4114 13.9407C61.8565 13.1477 62.1349 12.2712 62.2292 11.3654C62.3235 10.4597 62.2317 9.54401 61.9596 8.6754C61.7192 7.80008 61.3005 6.98463 60.7299 6.28102C60.1593 5.57741 59.4495 5.00102 58.6455 4.58846C57.863 4.13849 56.9969 3.85515 56.101 3.75595C55.2051 3.65674 54.2986 3.74384 53.4375 4.01183C52.5652 4.26314 51.753 4.69058 51.0504 5.26823C50.3478 5.84589 49.7695 6.56155 49.3508 7.37155C48.9002 8.15276 48.6144 9.01918 48.5115 9.91652C48.4086 10.8139 48.4908 11.7229 48.7528 12.5868C48.9907 13.5343 49.4395 14.4149 50.0655 15.1621C50.6915 15.9092 51.4781 16.5034 52.366 16.8995H52.2663ZM50.9457 8.22411C51.2357 7.64154 51.6456 7.12773 52.1483 6.71701C52.651 6.3063 53.2349 6.0081 53.8611 5.84212C54.4759 5.64038 55.1258 5.5697 55.7693 5.63445C56.4128 5.6992 57.0359 5.89803 57.5989 6.21828C58.1683 6.54424 58.6683 6.97998 59.0703 7.50055C59.4722 8.02113 59.7681 8.61626 59.9412 9.25204C60.1373 9.88304 60.2073 10.5469 60.1474 11.2052C60.0876 11.8636 59.899 12.5036 59.5924 13.0883C59.294 13.6572 58.8863 14.1609 58.3932 14.5702C57.9 14.9794 57.331 15.2862 56.7192 15.4728C56.1074 15.6593 55.4649 15.7218 54.8288 15.6569C54.1928 15.5919 53.5759 15.4007 53.0139 15.0941C52.4141 14.7809 51.8839 14.3481 51.4555 13.8223C51.0272 13.2964 50.7096 12.6885 50.522 12.0353C50.3204 11.4083 50.2495 10.7461 50.3138 10.0904C50.3781 9.43459 50.5762 8.7993 50.8958 8.22411H50.9457ZM9.3815 56.139C10.2521 56.5612 11.206 56.7804 12.1724 56.7804C13.1387 56.7804 14.0927 56.5612 14.9633 56.139C16.5055 55.4261 17.7243 54.155 18.3771 52.5787C19.0751 50.8591 19.0751 48.9326 18.3771 47.213C18.059 46.3619 17.5693 45.5861 16.939 44.9346C16.3086 44.283 15.5511 43.7697 14.7141 43.4269C13.8898 43.0608 12.9986 42.8717 12.0976 42.8717C11.1966 42.8717 10.3055 43.0608 9.4812 43.4269C8.64294 43.7569 7.88091 44.2565 7.24227 44.8948C6.60363 45.5331 6.102 46.2966 5.76836 47.1378C5.41127 47.9822 5.22722 48.8905 5.22722 49.8081C5.22722 50.7258 5.41127 51.6339 5.76836 52.4783C6.07719 53.3238 6.5581 54.0951 7.18029 54.7428C7.80249 55.3904 8.5522 55.9001 9.3815 56.2393V56.139ZM7.53756 47.7896C7.77719 47.1864 8.13751 46.6392 8.59618 46.182C9.05486 45.7248 9.60211 45.3673 10.2039 45.1319C10.8016 44.871 11.4461 44.7364 12.0976 44.7364C12.7491 44.7364 13.3937 44.871 13.9914 45.1319C15.2092 45.6407 16.177 46.6145 16.6827 47.8398C17.1512 49.0459 17.1379 50.3875 16.6456 51.584C16.1532 52.7804 15.22 53.7388 14.0413 54.2586C13.4345 54.5127 12.7838 54.6435 12.1266 54.6436C11.4694 54.6436 10.8186 54.5129 10.2118 54.2589C9.60504 54.0048 9.05418 53.6327 8.59094 53.1636C8.1277 52.6945 7.76118 52.1378 7.51261 51.5257C7.01415 50.3048 7.01415 48.9353 7.51261 47.7145L7.53756 47.7896ZM7.712 91.8684C7.712 92.2156 7.60968 92.5549 7.41801 92.8436C7.22635 93.1322 6.95393 93.3571 6.6352 93.49C6.31647 93.6228 5.96573 93.6576 5.62737 93.5899C5.28901 93.5222 4.97824 93.355 4.7343 93.1095C4.49035 92.8641 4.32419 92.5514 4.25689 92.2109C4.18958 91.8705 4.22418 91.5175 4.3562 91.1968C4.48822 90.876 4.71178 90.6019 4.99863 90.4091C5.28548 90.2162 5.62269 90.1133 5.96768 90.1133C6.43029 90.1133 6.87394 90.2982 7.20106 90.6273C7.52817 90.9565 7.712 91.4029 7.712 91.8684ZM59.8665 30.6145C61.123 31.5045 62.4479 32.2926 63.8285 32.9714C67.806 34.9138 72.2411 35.7079 76.6403 35.2652C81.0396 34.8226 85.2305 33.1605 88.747 30.4641C87.7512 29.9692 86.6826 29.639 85.5824 29.4862C82.3112 31.4602 78.5817 32.5341 74.7679 32.6001C70.9541 32.6661 67.1901 31.722 63.8534 29.8623C63.2056 29.6868 62.8816 29.0349 62.1341 29.06L59.6422 30.2634L59.8415 30.4892L59.8665 30.6145ZM79.8013 6.31851L82.4426 15.395L87.4263 7.34645L87.6755 15.4703L89.6939 15.7461L89.046 1.22873L83.0905 10.8819L79.9258 0L75.3408 13.8405L77.3842 14.1163L79.8013 6.31851ZM101.779 20.9614C102.27 21.2322 102.812 21.3967 103.37 21.4442C103.928 21.4917 104.49 21.4212 105.019 21.2371C105.564 21.0709 106.067 20.7905 106.497 20.4146C106.926 20.0386 107.272 19.5756 107.511 19.0558C107.928 18.2912 108.052 17.399 107.86 16.5484C107.624 15.6028 107.142 14.7374 106.464 14.0411L105.542 12.963C104.844 12.1606 104.645 11.4836 104.944 10.907C105.035 10.7031 105.173 10.5239 105.346 10.3844C105.519 10.2448 105.723 10.1489 105.941 10.1046C106.427 9.97769 106.944 10.0404 107.386 10.2801C107.743 10.4406 108.046 10.7019 108.258 11.0323C108.466 11.4345 108.569 11.8831 108.557 12.3362H110.426C110.434 11.5879 110.233 10.8524 109.845 10.2139C109.457 9.57536 108.899 9.05969 108.233 8.7256C107.317 8.22998 106.248 8.10442 105.243 8.37454C104.783 8.48402 104.354 8.69647 103.988 8.99602C103.621 9.29556 103.326 9.67448 103.125 10.1046C102.822 10.8259 102.751 11.6243 102.921 12.3883C103.09 13.1524 103.493 13.8442 104.072 14.3671L104.969 15.4201C105.186 15.659 105.378 15.9194 105.542 16.1974C105.679 16.4224 105.78 16.6678 105.841 16.9245C105.891 17.1474 105.891 17.3786 105.841 17.6015C105.81 17.8361 105.742 18.0645 105.642 18.2785C105.523 18.5458 105.351 18.7858 105.137 18.9841C104.923 19.1824 104.67 19.3347 104.396 19.4318C104.095 19.5259 103.777 19.5557 103.464 19.5195C103.151 19.4832 102.849 19.3816 102.577 19.2212C102.305 19.0607 102.069 18.8449 101.884 18.5876C101.7 18.3303 101.571 18.0372 101.505 17.7268C101.463 17.1611 101.557 16.5935 101.779 16.072L99.7859 15.5705C99.4251 16.6095 99.4251 17.741 99.7859 18.78C100.178 19.7517 100.928 20.5334 101.879 20.9614H101.779ZM96.7957 36.1807C97.6566 36.5057 98.5956 36.5583 99.4869 36.3313C97.0157 34.2694 94.185 32.6879 91.1392 31.6675L89.345 32.0186C91.8369 33.3224 94.3287 34.5258 96.8206 36.1807H96.7957ZM84.785 28.3078C84.5173 26.816 83.9399 25.3976 83.0905 24.1456C81.8918 22.5209 80.2722 21.2594 78.4087 20.4987C76.5453 19.7381 74.5098 19.5078 72.525 19.833C70.462 20.2737 68.5602 21.2797 67.0299 22.7399C65.4995 24.2001 64.4002 26.0576 63.8534 28.1072C67.0101 30.0086 70.6133 31.0295 74.2922 31.0647C77.9711 31.1 81.5929 30.1484 84.785 28.3078ZM110.102 23.2932C110.214 24.1867 110.506 25.0477 110.96 25.8237C111.415 26.5998 112.021 27.2744 112.744 27.8063C113.742 28.5838 114.93 29.0774 116.182 29.2355L117.628 27.2797H116.481C116.159 27.3196 115.832 27.3196 115.509 27.2797C114.92 27.1166 114.369 26.8353 113.89 26.4524C113.375 26.0702 112.944 25.5859 112.623 25.0296C112.301 24.4734 112.097 23.8568 112.021 23.2179C111.93 22.5676 111.971 21.9055 112.143 21.2719C112.314 20.6382 112.612 20.0463 113.018 19.5322C113.791 18.4589 114.956 17.7377 116.257 17.5263C116.889 17.4142 117.536 17.4365 118.159 17.592C118.781 17.7475 119.364 18.0326 119.87 18.4289C120.904 19.2763 121.603 20.4681 121.839 21.7887L123.259 19.8831C122.799 18.7547 122.052 17.7688 121.091 17.0248C120.311 16.386 119.394 15.938 118.412 15.7161C117.431 15.4942 116.412 15.5045 115.435 15.7461C113.829 16.0544 112.392 16.9469 111.398 18.2534C110.854 18.9565 110.459 19.7639 110.236 20.6262C110.013 21.4885 109.968 22.3875 110.102 23.2681V23.2932ZM72.4005 14.0912L72.226 12.2107L68.3637 12.5868L67.2922 1.20363L65.3236 1.37917L66.5695 14.6429L72.4005 14.0912ZM111.871 138.906L102.726 132.412L107.71 146.127L109.479 145.049L106.589 137.527L114.239 142.968L113.167 133.515L118.35 139.733L120.095 138.68L110.65 127.698L111.871 138.906ZM115.534 124.739L124.281 134.769L125.776 133.44L117.03 123.411L115.534 124.739ZM90.0179 119.95C89.8761 119.482 89.6191 119.057 89.2706 118.715C88.9221 118.373 88.4934 118.125 88.0244 117.995C87.5169 117.877 86.9871 117.904 86.4938 118.072C86.0005 118.239 85.563 118.541 85.2299 118.944C84.8969 119.346 84.6813 119.834 84.6071 120.353C84.533 120.871 84.6032 121.4 84.8099 121.881C85.1586 122.612 85.7748 123.178 86.5293 123.461C86.9468 123.616 87.3982 123.657 87.8364 123.577C88.2747 123.498 88.6838 123.302 89.0212 123.009C89.4965 122.678 89.8543 122.203 90.0425 121.653C90.2308 121.102 90.2396 120.506 90.0677 119.95H90.0179ZM98.4404 137.502C97.653 137.063 96.7842 136.792 95.8882 136.705C94.9922 136.619 94.0882 136.719 93.2324 137C92.3637 137.26 91.5561 137.694 90.8581 138.276C90.1601 138.857 89.5862 139.575 89.1707 140.385C88.7324 141.172 88.4596 142.041 88.3696 142.938C88.2796 143.835 88.3741 144.741 88.6473 145.6C88.8912 146.546 89.3454 147.423 89.9757 148.166C90.6059 148.908 91.3958 149.497 92.2855 149.888C93.8423 150.637 95.6238 150.762 97.2692 150.239C98.1492 149.982 98.9677 149.547 99.6747 148.961C100.382 148.375 100.962 147.649 101.381 146.829C101.827 146.036 102.105 145.159 102.195 144.252C102.285 143.345 102.186 142.43 101.904 141.564C101.649 140.691 101.219 139.88 100.641 139.181C100.062 138.483 99.3471 137.911 98.54 137.502H98.4404ZM99.5616 146.002C98.9393 147.124 97.9123 147.963 96.6928 148.346C95.4732 148.729 94.1542 148.625 93.0081 148.058C92.4028 147.758 91.8677 147.333 91.4381 146.81C91.0085 146.287 90.6943 145.678 90.5162 145.024C90.2635 144.099 90.2796 143.121 90.5624 142.205C90.8453 141.29 91.3831 140.475 92.1122 139.857C92.8412 139.24 93.731 138.846 94.6759 138.722C95.6208 138.597 96.5813 138.748 97.4436 139.157C98.5952 139.813 99.4521 140.889 99.8371 142.163C100.222 143.437 100.106 144.812 99.5118 146.002H99.5616ZM142.671 91.6177C142.671 91.9659 142.568 92.3062 142.375 92.5953C142.182 92.8845 141.908 93.1094 141.588 93.2415C141.268 93.3735 140.916 93.4069 140.577 93.3371C140.238 93.2673 139.927 93.0977 139.684 92.8497C139.441 92.6017 139.277 92.2866 139.213 91.9445C139.148 91.6024 139.186 91.2487 139.322 90.9285C139.458 90.6082 139.685 90.336 139.976 90.1462C140.266 89.9564 140.605 89.8576 140.951 89.8626C141.185 89.8782 141.414 89.9411 141.623 90.0475C141.832 90.1538 142.018 90.3016 142.169 90.4818C142.32 90.662 142.433 90.8709 142.503 91.0962C142.572 91.3215 142.595 91.5587 142.571 91.7933L142.671 91.6177ZM21.2427 113.858C21.7079 112.086 21.4582 110.201 20.548 108.613C19.6378 107.026 18.1409 105.865 16.3836 105.383C15.527 105.118 14.6242 105.039 13.7349 105.151C12.8457 105.264 11.9904 105.565 11.2255 106.035C10.3677 106.49 9.62374 107.134 9.04964 107.92C8.47554 108.707 8.08629 109.614 7.91132 110.573C7.54086 112.283 7.81622 114.071 8.68379 115.588C9.12601 116.391 9.72475 117.095 10.4441 117.66C11.1634 118.224 11.9886 118.636 12.8702 118.872C13.7379 119.125 14.6481 119.196 15.5441 119.079C16.4402 118.963 17.3028 118.662 18.0781 118.195C18.8732 117.73 19.5645 117.104 20.1089 116.358C20.6534 115.612 21.0393 114.761 21.2427 113.858ZM17.0813 116.365C15.9488 117.042 14.5961 117.24 13.3187 116.917C12.3945 116.636 11.5714 116.091 10.9492 115.348C10.327 114.606 9.93251 113.697 9.81374 112.733C9.69498 111.769 9.85699 110.791 10.2801 109.918C10.7033 109.045 11.3693 108.314 12.1973 107.815C13.039 107.359 13.9935 107.155 14.9468 107.23C15.9001 107.304 16.8121 107.653 17.5739 108.234C18.3356 108.816 18.9151 109.605 19.2431 110.509C19.5711 111.413 19.6337 112.393 19.4237 113.331C19.2506 113.967 18.9546 114.562 18.5527 115.083C18.1508 115.603 17.6508 116.039 17.0813 116.365ZM139.78 107.79C139.028 107.35 138.146 107.191 137.288 107.339C136.36 107.55 135.502 107.999 134.796 108.642L133.7 109.545C132.903 110.222 132.205 110.373 131.657 110.072C131.455 109.969 131.28 109.82 131.146 109.637C131.012 109.455 130.922 109.243 130.884 109.019C130.794 108.528 130.883 108.02 131.133 107.589C131.302 107.235 131.571 106.939 131.906 106.737C132.309 106.539 132.754 106.444 133.202 106.461V104.581C132.461 104.539 131.723 104.713 131.078 105.082C130.433 105.451 129.907 106 129.564 106.662C129.035 107.56 128.866 108.626 129.09 109.645C129.183 110.11 129.376 110.549 129.656 110.93C129.936 111.311 130.296 111.626 130.71 111.852C131.406 112.193 132.193 112.301 132.954 112.161C133.716 112.022 134.414 111.641 134.946 111.075L136.017 110.197C136.263 109.993 136.531 109.816 136.815 109.671C137.04 109.541 137.284 109.448 137.538 109.395C137.759 109.344 137.989 109.344 138.21 109.395C138.447 109.424 138.676 109.501 138.883 109.62C139.139 109.755 139.366 109.94 139.55 110.163C139.734 110.387 139.871 110.646 139.955 110.924C140.044 111.201 140.074 111.493 140.044 111.783C140.014 112.072 139.924 112.352 139.78 112.604C139.633 112.924 139.407 113.2 139.123 113.406C138.84 113.612 138.508 113.742 138.16 113.782C137.6 113.801 137.044 113.681 136.541 113.432L135.968 115.437C136.973 115.858 138.092 115.911 139.132 115.588C140.108 115.234 140.911 114.516 141.375 113.582C141.658 113.094 141.839 112.554 141.907 111.993C141.976 111.433 141.93 110.864 141.774 110.322C141.624 109.785 141.365 109.285 141.013 108.853C140.661 108.422 140.225 108.068 139.73 107.815L139.78 107.79ZM133.974 120.878C133.939 121.202 133.872 121.521 133.775 121.831C133.603 122.423 133.305 122.971 132.903 123.436C132.5 123.94 131.997 124.353 131.426 124.651C130.856 124.949 130.23 125.124 129.589 125.166C128.944 125.219 128.296 125.14 127.684 124.933C127.071 124.726 126.507 124.396 126.025 123.962C125.513 123.543 125.088 123.026 124.776 122.441C124.463 121.856 124.27 121.214 124.206 120.552C124.129 119.911 124.187 119.26 124.376 118.642C124.565 118.025 124.88 117.454 125.303 116.967C126.177 115.971 127.381 115.329 128.691 115.161L126.897 113.607C125.761 114.02 124.749 114.719 123.957 115.638C123.363 116.338 122.912 117.15 122.631 118.026C122.35 118.903 122.243 119.826 122.317 120.744C122.391 121.662 122.644 122.556 123.063 123.375C123.481 124.194 124.056 124.922 124.754 125.517C125.428 126.118 126.22 126.572 127.078 126.848C127.936 127.124 128.842 127.217 129.738 127.121C130.635 127.041 131.507 126.777 132.3 126.346C133.092 125.915 133.789 125.325 134.348 124.614C135.154 123.642 135.695 122.475 135.918 121.229L134.099 119.65C134.127 120.042 134.127 120.436 134.099 120.828L133.974 120.878ZM84.3863 139.783L82.4177 139.909L82.9908 149.136L72.7742 139.633L73.6713 153.824H75.6399L75.0668 144.522L85.2834 154L84.3863 139.783ZM42.3487 133.59L43.3704 132.011L37.3152 127.974L30.0639 139.081L36.1441 143.118L37.1657 141.539L32.7551 138.605L35.2469 134.894L39.5329 137.752L40.5546 136.173L36.1939 133.289L37.9132 130.632L42.3487 133.59ZM15.6859 125.291L17.0066 126.821L21.7162 122.633L24.6316 125.993L26.0271 124.739L23.1116 121.38L25.4789 119.248L28.519 122.734L29.9144 121.505L25.5785 116.49L15.6859 125.291ZM52.042 135.822C51.1229 135.373 50.1115 135.147 49.0898 135.165C48.0681 135.182 47.0648 135.442 46.1613 135.922C44.6778 136.652 43.5087 137.899 42.872 139.432C42.184 141.112 42.1828 142.998 42.8687 144.679C43.5547 146.359 44.8722 147.7 46.535 148.409C47.6897 148.902 48.9545 149.075 50.1981 148.91L51.145 146.679L50.0236 146.979H49.0518C48.4417 146.988 47.8373 146.859 47.2826 146.603C46.7069 146.358 46.1881 145.995 45.7591 145.538C45.3302 145.08 45.0004 144.538 44.7908 143.946C44.2923 142.725 44.2923 141.355 44.7908 140.134C45.0329 139.521 45.393 138.961 45.8506 138.488C46.3081 138.015 46.854 137.637 47.457 137.376C48.04 137.11 48.6731 136.972 49.3135 136.972C49.9539 136.972 50.5869 137.11 51.1699 137.376C52.3839 137.921 53.3585 138.893 53.9109 140.109L54.808 137.928C54.0977 136.942 53.1325 136.17 52.0171 135.696L52.042 135.822ZM63.8036 139.106C62.9165 138.937 62.0046 138.949 61.1225 139.143C60.2404 139.337 59.4063 139.708 58.6703 140.235C57.9038 140.765 57.2531 141.448 56.7582 142.24C56.2632 143.033 55.9344 143.919 55.7921 144.844C55.6498 145.769 55.6969 146.714 55.9304 147.62C56.164 148.526 56.5791 149.375 57.1504 150.114C58.2402 151.511 59.8173 152.438 61.5619 152.708C63.3065 152.978 65.0878 152.571 66.5446 151.568C67.2956 151.061 67.9336 150.402 68.4184 149.634C68.9031 148.866 69.2239 148.004 69.3604 147.105C69.6723 145.303 69.2629 143.451 68.2217 141.952C67.1805 140.453 65.5921 139.43 63.8036 139.106ZM67.3918 146.628C67.1817 147.937 66.465 149.109 65.3984 149.888C64.3345 150.605 63.037 150.883 61.775 150.664C60.513 150.444 59.3834 149.745 58.6205 148.709C58.233 148.171 57.9556 147.561 57.8046 146.914C57.6536 146.267 57.6319 145.596 57.7409 144.94C57.8499 144.285 58.0873 143.657 58.4394 143.095C58.7915 142.532 59.2511 142.046 59.7917 141.664C60.3089 141.272 60.9031 140.996 61.5347 140.853C62.1662 140.711 62.8208 140.705 63.4547 140.837C64.0934 140.936 64.7044 141.167 65.2493 141.517C65.7941 141.867 66.2606 142.327 66.6194 142.867C66.9977 143.407 67.2616 144.02 67.3945 144.667C67.5274 145.314 67.5265 145.982 67.3918 146.628ZM77.7081 132.337C75.7894 131.71 76.1631 129.629 76.1133 127.974C75.5153 127.548 74.9172 127.121 74.3192 126.77L72.8241 127.924V130.055C72.5316 131.001 71.9013 131.805 71.0549 132.312C72.1052 132.801 73.2489 133.055 74.4064 133.055C75.5639 133.055 76.7076 132.801 77.7579 132.312L77.7081 132.337ZM47.6564 118.571C47.6665 119.055 47.8153 119.525 48.085 119.926C48.3547 120.326 48.7337 120.639 49.1764 120.828C51.5187 121.104 53.3129 119.349 55.406 119.399C54.3345 118.722 52.9142 117.995 51.7679 117.192C50.1192 115.86 48.2083 114.894 46.1613 114.359C45.767 114.442 45.3946 114.608 45.0683 114.846C44.742 115.083 44.4691 115.387 44.2674 115.738C44.1255 116.013 44.0514 116.318 44.0514 116.628C44.0514 116.938 44.1255 117.243 44.2674 117.518C44.9652 118.571 46.4104 118.521 47.5567 118.571H47.6564ZM32.5558 65.717C34.0758 64.9648 36.3434 65.3159 37.066 63.3852C37.365 62.6581 36.767 62.0814 36.6424 61.4546C37.2714 61.4988 37.8992 61.353 38.4453 61.0359C38.9914 60.7187 39.4309 60.2447 39.7074 59.6745C39.7074 58.9223 39.7074 58.0697 39.1094 57.5933C38.6762 57.1664 38.1032 56.9131 37.4977 56.8808C36.8922 56.8485 36.2957 57.0394 35.8201 57.4178C33.8483 60.098 32.3713 63.1129 31.4594 66.3188L32.5308 65.717H32.5558ZM44.1179 114.108C44.5899 113.887 45.0136 113.573 45.3643 113.186C45.7151 112.799 45.9859 112.345 46.1613 111.852C46.3409 110.941 46.1813 109.995 45.7128 109.194C45.278 108.553 44.6343 108.084 43.8928 107.869C43.1514 107.654 42.3585 107.705 41.651 108.016C41.1654 108.256 40.743 108.608 40.4183 109.044C40.0935 109.48 39.8756 109.986 39.7821 110.523C39.7231 110.999 39.7611 111.483 39.8939 111.944C40.0267 112.406 40.2515 112.835 40.5546 113.206C41.0029 113.68 41.5757 114.016 42.2064 114.176C42.8371 114.336 43.4999 114.312 44.1179 114.108ZM122.437 89.2609C122.885 88.9851 122.91 88.5086 122.985 88.0823C122.926 87.6476 122.703 87.2525 122.362 86.9791C121.969 86.8814 121.559 86.8814 121.166 86.9791C120.829 87.1437 120.557 87.4174 120.394 87.7564C120.296 88.0674 120.302 88.402 120.41 88.7095C120.517 89.017 120.722 89.2808 120.992 89.4613C121.222 89.5705 121.477 89.6163 121.731 89.5943C121.985 89.5723 122.228 89.4832 122.437 89.336V89.2609ZM54.6834 112.83C54.3684 112.491 53.9791 112.23 53.5465 112.069C53.1139 111.908 52.65 111.851 52.1916 111.902C51.9809 111.289 51.7225 110.694 51.419 110.122C51.2157 109.717 50.8866 109.391 50.4818 109.191C50.077 108.992 49.6186 108.932 49.1764 109.019C48.8775 109.13 48.6055 109.304 48.3779 109.529C48.1504 109.753 47.9724 110.024 47.8557 110.322C47.1829 113.156 50.3476 114.485 52.2912 115.713C53.7116 116.616 55.0572 117.443 56.3779 118.22C55.2565 116.641 55.7051 114.459 54.6336 112.88L54.6834 112.83ZM31.26 95.2783C31.9528 95.302 32.6382 95.1289 33.2376 94.7785C33.837 94.4282 34.3261 93.9149 34.6489 93.2976C34.865 92.7639 34.9636 92.1895 34.9377 91.6138C34.9119 91.0381 34.7624 90.4748 34.4994 89.9628C34.3048 89.5827 34.0373 89.2451 33.7122 88.9696C33.3871 88.6942 33.011 88.4865 32.6056 88.3583C31.9645 88.1511 31.2782 88.1308 30.6261 88.2999C29.9741 88.4691 29.383 88.8208 28.9214 89.3141C28.4598 89.8074 28.1466 90.4222 28.0181 91.0873C27.8895 91.7524 27.9509 92.4404 28.195 93.0719C28.4615 93.683 28.8869 94.2106 29.4263 94.5989C29.9657 94.9872 30.5991 95.2219 31.26 95.2783ZM57.25 81.3627C52.2699 79.846 46.9551 79.846 41.975 81.3627L41.676 81.6385L42.1245 83.3937C46.9514 82.0524 52.0493 82.0524 56.8762 83.3937C57.0008 82.7417 57.3996 82.0397 57.25 81.3878V81.3627ZM55.2067 84.6975C52.1767 84.0513 49.061 83.9156 45.9868 84.2962C44.7409 84.6974 42.6976 84.522 42.5232 85.9261C42.7475 86.6281 43.495 86.8037 44.0432 87.0795C48.0138 87.9137 52.1211 87.8279 56.0539 86.8287C56.2756 86.7407 56.4669 86.5895 56.6042 86.3934C56.7415 86.1974 56.8187 85.9651 56.8264 85.7254C56.5523 85.0986 55.8297 84.9232 55.2067 84.6975ZM33.5027 88.0323C33.7174 87.9898 33.921 87.9033 34.1011 87.7783C34.2811 87.6532 34.4337 87.492 34.5492 87.3051C34.6845 87.0916 34.7565 86.8437 34.7565 86.5906C34.7565 86.3374 34.6845 86.0893 34.5492 85.8759C34.3661 85.6068 34.1058 85.4004 33.8031 85.2839C33.5004 85.1675 33.1696 85.1467 32.8548 85.2241C32.1571 85.525 32.0574 86.3273 32.0823 87.0544C32.2177 87.3507 32.4359 87.6009 32.7102 87.7746C32.9846 87.9482 33.3032 88.0378 33.6273 88.0323H33.5027ZM58.1471 118.597C58.4543 118.706 58.7884 118.711 59.0988 118.611C59.4091 118.512 59.6787 118.313 59.8665 118.045C59.9977 117.839 60.0854 117.608 60.124 117.366C60.1626 117.125 60.1512 116.878 60.0907 116.641C59.9549 116.308 59.7178 116.027 59.4135 115.837C59.1091 115.648 58.753 115.561 58.3963 115.588C58.1877 115.62 57.9885 115.697 57.8122 115.814C57.6359 115.931 57.4866 116.085 57.3746 116.265C57.2383 116.46 57.1494 116.685 57.1151 116.922C57.0809 117.158 57.1021 117.4 57.1772 117.626C57.2523 117.853 57.3792 118.059 57.5476 118.227C57.716 118.396 57.9213 118.522 58.1471 118.597ZM32.805 72.888C33.094 72.3127 33.2446 71.6772 33.2446 71.0326C33.2446 70.388 33.094 69.7524 32.805 69.1772C32.3181 68.3567 31.5592 67.7352 30.6619 67.422C29.9427 67.2087 29.1765 67.2164 28.4617 67.4442C27.7469 67.672 27.1161 68.1097 26.6501 68.7008C26.3241 69.2359 26.1173 69.8359 26.0442 70.4593C25.971 71.0826 26.0332 71.7145 26.2264 72.3113C26.4806 72.9523 26.9108 73.5071 27.4668 73.9111C28.0228 74.3152 28.6816 74.5516 29.3662 74.5929C30.0201 74.6123 30.6683 74.4664 31.2516 74.1685C31.8349 73.8707 32.3347 73.4304 32.7053 72.888H32.805ZM31.2102 85.4246C31.8082 83.5441 34.8981 83.2181 34.3499 80.8612C34.2253 80.3598 33.7518 80.0589 33.3781 79.758C33.3781 79.4822 33.6771 79.357 33.8765 79.1062C34.1629 78.7643 34.3531 78.3514 34.4276 77.9106C34.5021 77.4697 34.458 77.0169 34.3 76.5989C33.9773 76.0868 33.5083 75.6847 32.9545 75.4455C32.545 75.3423 32.1141 75.3661 31.7183 75.5137C31.3225 75.6614 30.9803 75.9261 30.7367 76.2729C29.4409 79.4823 30.7367 83.3436 30.7367 86.578L31.1105 85.4999L31.2102 85.4246ZM26.2264 64.99C26.0813 65.1648 25.9842 65.3748 25.9449 65.5992C25.9055 65.8236 25.9253 66.0543 26.0022 66.2686C26.2015 66.6447 26.4009 67.046 26.8992 67.1713C27.3976 67.2967 27.9209 67.0208 28.3694 66.745C28.5499 66.4931 28.647 66.1905 28.647 65.88C28.647 65.5695 28.5499 65.2668 28.3694 65.0149C28.2338 64.8602 28.067 64.7364 27.8801 64.6515C27.6932 64.5666 27.4905 64.5226 27.2855 64.5226C27.0804 64.5226 26.8777 64.5666 26.6909 64.6515C26.504 64.7364 26.3371 64.8602 26.2015 65.0149L26.2264 64.99ZM35.3466 67.1462C35.184 66.9116 34.9529 66.7337 34.6853 66.6371C34.4177 66.5405 34.1268 66.5301 33.853 66.6072C33.5793 66.6844 33.3362 66.8452 33.1573 67.0676C32.9784 67.2899 32.8727 67.5627 32.8548 67.8482C32.8838 68.1465 33.0053 68.428 33.2021 68.653C33.3988 68.878 33.6609 69.035 33.9512 69.1019C34.2107 69.1702 34.4845 69.1591 34.7376 69.0697C34.9907 68.9804 35.2115 68.817 35.3716 68.6005C35.4816 68.3741 35.5388 68.1253 35.5388 67.8733C35.5388 67.6213 35.4816 67.3726 35.3716 67.1462H35.3466ZM26.2264 89.3611C26.4278 89.5126 26.666 89.6066 26.916 89.633C27.166 89.6595 27.4186 89.6175 27.6468 89.5115C27.9157 89.324 28.1185 89.0554 28.226 88.7445C28.3335 88.4336 28.34 88.0964 28.2448 87.7815C28.0952 87.4386 27.8179 87.1685 27.4724 87.0293C27.0901 86.9158 26.6834 86.9158 26.3012 87.0293C25.9529 87.3 25.721 87.6949 25.6533 88.1325C25.6533 88.5588 25.7779 89.0602 26.2264 89.3109V89.3611ZM37.5644 110.072C37.8319 110.1 38.1017 110.046 38.3377 109.916C38.5737 109.786 38.7647 109.587 38.885 109.345C39.0096 108.818 39.1094 108.066 38.6359 107.665C38.4729 107.513 38.2794 107.4 38.0688 107.33C37.8581 107.261 37.6351 107.238 37.4148 107.263C37.0264 107.367 36.6732 107.575 36.3932 107.865C36.2187 108.241 35.9945 108.768 36.3932 109.094C36.4937 109.359 36.6659 109.592 36.8904 109.764C37.1149 109.937 37.3828 110.044 37.664 110.072H37.5644ZM92.3851 123.26C92.8586 123.536 93.2572 123.26 93.7058 123.26C93.9286 123.065 94.1049 122.821 94.2214 122.548C94.3378 122.274 94.3916 121.978 94.3786 121.681C94.3433 121.386 94.2264 121.108 94.0414 120.877C93.8563 120.647 93.6105 120.473 93.332 120.377C92.8133 120.324 92.2927 120.457 91.8618 120.753C91.6549 120.963 91.5067 121.224 91.4323 121.51C91.3579 121.797 91.36 122.097 91.4383 122.383C91.5629 122.834 91.9117 123.335 92.3851 123.36V123.26ZM90.591 118.571C90.9859 118.404 91.3176 118.114 91.5379 117.744C91.6635 117.24 91.6107 116.708 91.3884 116.24C91.2679 116.062 91.1132 115.911 90.9334 115.794C90.7536 115.678 90.5525 115.599 90.3418 115.563C89.9844 115.532 89.6267 115.617 89.3215 115.807C89.0163 115.997 88.7799 116.28 88.6473 116.616C88.5365 117.095 88.6171 117.599 88.8717 118.02C89.0646 118.281 89.3344 118.476 89.6429 118.575C89.9514 118.674 90.2831 118.672 90.591 118.571ZM59.7917 123.386C60.1373 123.663 60.546 123.849 60.981 123.928C61.416 124.006 61.8636 123.975 62.2836 123.837C63.0238 123.528 63.6264 122.957 63.978 122.232C64.1847 121.751 64.2549 121.222 64.1807 120.704C64.1066 120.185 63.8911 119.697 63.558 119.295C63.2249 118.892 62.7874 118.59 62.2941 118.423C61.8008 118.255 61.2709 118.229 60.7635 118.346C60.2944 118.477 59.8658 118.724 59.5173 119.066C59.1688 119.408 58.9118 119.833 58.77 120.302C58.6066 120.864 58.6221 121.463 58.8142 122.016C59.0064 122.569 59.3655 123.048 59.8415 123.386H59.7917ZM87.2021 102.224C87.5011 101.647 88.2736 101.146 88.448 100.644C87.6592 100.489 86.8439 100.541 86.0807 100.794C84.3115 101.045 83.8381 102.976 83.5889 104.48L81.72 104.004C81.7798 103.657 81.7663 103.301 81.6804 102.96C81.5946 102.619 81.4383 102.3 81.2216 102.023C81.0072 101.871 80.7614 101.769 80.5026 101.726C80.2437 101.682 79.9784 101.698 79.7265 101.772C79.0288 102.148 78.8793 102.876 78.5803 103.528C78.057 103.528 77.3593 103.528 76.8609 103.327C77.0767 102.485 76.9792 101.594 76.5868 100.82C76.3982 100.592 76.1669 100.404 75.9061 100.266C75.6453 100.129 75.3601 100.044 75.0668 100.017C74.7292 99.9976 74.3914 100.052 74.0772 100.178C73.763 100.304 73.4798 100.497 73.2477 100.744C73.0051 101.056 72.8308 101.417 72.7363 101.801C72.6418 102.186 72.6293 102.586 72.6995 102.976C72.4254 103.377 71.6778 103.201 71.1545 103.277C70.5814 102.775 71.005 101.873 70.2824 101.396C70.0836 101.26 69.8547 101.176 69.6158 101.149C69.3768 101.123 69.1352 101.156 68.9119 101.246C68.4718 101.491 68.1287 101.88 67.94 102.349C67.6909 102.75 67.9401 103.452 67.666 103.703C65.1741 105.308 67.043 101.597 65.5977 100.644C65.3485 99.6913 63.1059 99.3153 62.1839 99.6412C63.6962 101.63 64.79 103.908 65.3984 106.336H65.7721C71.6529 104.079 79.1534 105.233 85.0591 106.662C85.6275 105.075 86.3626 103.553 87.2519 102.123L87.2021 102.224ZM120.344 93.097C120.585 92.468 120.645 91.7834 120.517 91.1216C120.389 90.4598 120.079 89.8477 119.621 89.3556C119.163 88.8634 118.576 88.5111 117.928 88.3391C117.281 88.1671 116.598 88.1824 115.958 88.3832C115.553 88.5114 115.177 88.7193 114.851 88.9947C114.526 89.2702 114.259 89.6078 114.064 89.9879C113.797 90.498 113.643 91.0604 113.613 91.6361C113.583 92.2118 113.678 92.7872 113.89 93.3227C114.217 93.9362 114.707 94.4461 115.306 94.7958C115.904 95.1455 116.587 95.3213 117.279 95.3034C117.94 95.247 118.573 95.0123 119.112 94.624C119.652 94.2357 120.077 93.7081 120.344 93.097ZM110.974 110.072C111.257 110.04 111.527 109.932 111.755 109.761C111.983 109.589 112.161 109.358 112.27 109.094C112.544 108.768 112.27 108.241 112.27 107.865C111.983 107.585 111.632 107.379 111.248 107.263C111.03 107.238 110.809 107.258 110.599 107.323C110.389 107.388 110.194 107.495 110.027 107.639C109.833 107.872 109.704 108.154 109.656 108.454C109.608 108.754 109.641 109.062 109.753 109.345C109.881 109.58 110.074 109.774 110.308 109.903C110.542 110.032 110.808 110.09 111.074 110.072H110.974ZM108.009 113.256C108.307 112.882 108.529 112.452 108.662 111.992C108.794 111.532 108.835 111.049 108.782 110.573C108.686 110.037 108.468 109.532 108.143 109.096C107.818 108.661 107.397 108.308 106.913 108.066C106.201 107.759 105.405 107.708 104.661 107.923C103.916 108.138 103.268 108.604 102.826 109.244C102.55 109.656 102.372 110.126 102.304 110.617C102.237 111.109 102.281 111.61 102.435 112.081C102.589 112.553 102.848 112.983 103.192 113.339C103.536 113.694 103.956 113.966 104.421 114.133C105.04 114.346 105.706 114.376 106.342 114.22C106.977 114.065 107.556 113.73 108.009 113.256ZM99.4869 120.878C99.9192 120.675 100.289 120.358 100.556 119.961C100.824 119.564 100.98 119.101 101.007 118.622C102.153 118.622 103.499 118.622 104.296 117.569C104.432 117.292 104.503 116.987 104.503 116.678C104.503 116.37 104.432 116.065 104.296 115.788C104.091 115.436 103.814 115.131 103.483 114.893C103.152 114.655 102.776 114.491 102.377 114.409C100.335 114.937 98.4312 115.904 96.7957 117.243C95.5747 118.045 94.3038 118.772 93.1576 119.449C95.2258 119.449 97.0199 121.154 99.3872 120.878H99.4869ZM76.0635 116.34H72.6497V118.697C73.1566 119.503 73.759 120.244 74.4438 120.903L76.2878 118.396C76.2878 117.719 76.2877 117.017 76.1133 116.415L76.0635 116.34ZM84.2617 108.316C78.4366 106.662 72.2701 106.662 66.445 108.316C65.4233 108.316 66.4449 109.344 66.2954 109.871C71.5532 107.915 78.2812 108.693 83.7384 109.871L84.2617 108.442V108.316ZM81.122 115.838C80.5658 115.786 80.0048 115.854 79.4773 116.039C78.325 118.153 76.9282 120.122 75.316 121.906V122.207C75.4655 122.458 75.7894 122.583 76.0386 122.759C78.0616 120.739 79.7448 118.402 81.0223 115.838H81.122ZM72.525 124.739C69.897 127.082 66.8301 128.872 63.5045 130.005C67.1774 129.472 70.6294 127.917 73.472 125.517C73.2177 125.2 72.9046 124.936 72.55 124.739H72.525ZM83.5141 129.904C77.3799 127.213 72.521 122.234 69.9584 116.014L68.5879 115.864C69.8475 119.071 71.7279 121.994 74.1199 124.464C76.7317 127.152 80.0367 129.053 83.6636 129.955L83.5141 129.904ZM82.4426 111.275C81.3904 110.713 80.22 110.412 79.0288 110.398C75.2232 109.929 71.3666 110.098 67.6161 110.899C67.2174 111.125 66.6692 111.451 66.8686 112.077C67.666 112.88 68.8122 112.855 69.8588 113.13C73.303 113.331 76.7558 113.331 80.2 113.13C81.1179 113.127 82.0034 112.789 82.6918 112.178C82.7879 112.013 82.8182 111.818 82.7766 111.632C82.7349 111.446 82.6245 111.282 82.4676 111.175L82.4426 111.275Z" fill="#231F20"/>
</svg>
