<svg width="200" height="34" viewBox="0 0 200 34" fill="none" xmlns="http://www.w3.org/2000/svg">
<g clip-path="url(#clip0_671_790)">
<path d="M22.666 0V14.0896H36.8848V0H22.666ZM34.3614 6.78626H30.0363V2.5004H34.3818L34.3614 6.78626Z" fill="white"/>
<path d="M36.6559 22.5078C35.0391 25.9429 32.4662 28.8491 29.2397 30.885C26.0132 32.9208 22.2673 34.0015 18.4422 34C14.6173 34.001 10.8715 32.9201 7.64512 30.8843C4.41872 28.8486 1.84572 25.9426 0.228516 22.5078H36.6559Z" fill="white"/>
<path d="M0 0V14.0896H14.2187V0H0ZM11.6954 6.78626H7.37027V2.5004H11.6954V6.78626Z" fill="white"/>
<path d="M192.955 10.0541C192.949 9.43257 193.117 8.82152 193.44 8.28888C193.748 7.76654 194.186 7.3312 194.712 7.02453C195.248 6.71903 195.856 6.5614 196.473 6.56807C197.096 6.56337 197.709 6.72078 198.251 7.02453C198.785 7.32178 199.227 7.75924 199.527 8.28888C199.833 8.82732 199.992 9.43593 199.987 10.0541C199.994 10.6649 199.835 11.2662 199.527 11.7951C199.222 12.3151 198.781 12.7436 198.251 13.0352C197.71 13.342 197.097 13.5009 196.473 13.4957C195.855 13.503 195.247 13.3438 194.712 13.0352C194.19 12.7343 193.753 12.3078 193.44 11.7951C193.115 11.2723 192.947 10.6683 192.955 10.0541ZM193.771 10.0541C193.763 10.4082 193.827 10.7602 193.959 11.0891C194.092 11.4181 194.29 11.7173 194.541 11.9688C194.787 12.2249 195.084 12.427 195.413 12.562C195.742 12.697 196.097 12.7619 196.453 12.7525C196.93 12.7589 197.4 12.639 197.815 12.4051C198.223 12.174 198.558 11.8339 198.781 11.4235C199.015 11.0049 199.136 10.533 199.131 10.0541C199.143 9.69631 199.081 9.33989 198.949 9.00655C198.818 8.67321 198.619 8.36993 198.365 8.11519C198.116 7.86555 197.817 7.66905 197.489 7.53776C197.16 7.40647 196.807 7.34316 196.453 7.35173C195.975 7.34672 195.504 7.46654 195.087 7.69913C194.684 7.92817 194.351 8.26016 194.121 8.6605C193.892 9.08877 193.782 9.56983 193.803 10.0541H193.771ZM195.087 11.8396V8.20406H196.759C197.096 8.19885 197.423 8.31513 197.68 8.53125C197.81 8.63179 197.914 8.76071 197.985 8.9079C198.055 9.05509 198.091 9.21654 198.088 9.37954C198.092 9.53962 198.061 9.69872 197.996 9.84541C197.931 9.9921 197.835 10.1227 197.713 10.2278C197.45 10.4506 197.112 10.5674 196.767 10.555H195.931V11.8194L195.087 11.8396ZM196.669 9.92082C196.816 9.92504 196.96 9.87943 197.077 9.79155C197.137 9.74357 197.185 9.68164 197.215 9.61122C197.246 9.54079 197.258 9.46401 197.252 9.38761C197.259 9.31783 197.248 9.24745 197.221 9.18265C197.194 9.11786 197.152 9.06062 197.097 9.01598C196.976 8.93922 196.833 8.90116 196.689 8.90692H195.943V9.9087L196.669 9.92082ZM197.109 11.8396L196.058 10.2238H197.032L198.132 11.8396H197.109Z" fill="white"/>
<path d="M76.9144 2.41969V8.07491C76.9187 8.13312 76.9103 8.19156 76.8896 8.24622C76.869 8.30087 76.8366 8.35045 76.7948 8.39153C76.7529 8.43261 76.7026 8.46422 76.6473 8.48417C76.5919 8.50413 76.5329 8.51196 76.4742 8.50714H68.9612C68.9021 8.50223 68.8427 8.51015 68.787 8.53034C68.7314 8.55053 68.6808 8.58251 68.6389 8.62404C68.597 8.66557 68.5648 8.71565 68.5444 8.77081C68.524 8.82596 68.516 8.88486 68.5209 8.94339V32.461C68.5253 32.5192 68.5168 32.5777 68.4962 32.6324C68.4755 32.687 68.4432 32.7366 68.4013 32.7777C68.3595 32.8187 68.3091 32.8503 68.2538 32.8703C68.1984 32.8903 68.1394 32.8981 68.0807 32.8933H61.489C61.4303 32.8981 61.3713 32.8903 61.3159 32.8703C61.2606 32.8503 61.2103 32.8187 61.1684 32.7777C61.1266 32.7366 61.0942 32.687 61.0736 32.6324C61.0529 32.5777 61.0445 32.5192 61.0488 32.461V8.94339C61.0537 8.88486 61.0457 8.82596 61.0253 8.77081C61.005 8.71565 60.9727 8.66557 60.9308 8.62404C60.8889 8.58251 60.8383 8.55053 60.7827 8.53034C60.727 8.51015 60.6676 8.50223 60.6085 8.50714H53.0467C52.9883 8.51135 52.9297 8.50306 52.8748 8.48283C52.82 8.4626 52.7702 8.4309 52.7288 8.38989C52.6874 8.34888 52.6554 8.29952 52.635 8.24517C52.6146 8.19082 52.6062 8.13275 52.6105 8.07491V2.41969C52.6062 2.36185 52.6146 2.30378 52.635 2.24943C52.6554 2.19507 52.6874 2.14572 52.7288 2.10471C52.7702 2.06371 52.82 2.03201 52.8748 2.01178C52.9297 1.99155 52.9883 1.98325 53.0467 1.98747H76.4742C76.5329 1.98264 76.5919 1.99048 76.6473 2.01043C76.7026 2.03039 76.7529 2.062 76.7948 2.10307C76.8366 2.14415 76.869 2.19372 76.8896 2.24838C76.9103 2.30304 76.9187 2.36148 76.9144 2.41969Z" fill="white"/>
<path d="M93.9865 23.2955C93.9902 23.3424 93.9836 23.3895 93.9671 23.4336C93.9505 23.4778 93.9244 23.5178 93.8906 23.5508C93.8569 23.5839 93.8162 23.6093 93.7715 23.6252C93.7268 23.6411 93.6791 23.6471 93.6318 23.6429H79.2215C79.0014 23.6429 78.9117 23.7317 78.9117 23.9902C78.9117 26.1675 81.1538 27.6944 83.0452 27.6944C83.7913 27.7334 84.535 27.5814 85.2047 27.2531C85.8743 26.9249 86.4475 26.4314 86.869 25.8201C86.9083 25.7412 86.9727 25.6771 87.0522 25.6378C87.1316 25.5984 87.2219 25.5858 87.3092 25.602L93.1998 26.3856C93.4199 26.4301 93.5503 26.5593 93.4607 26.7896C92.2744 30.1464 88.8909 33.1517 83.1757 33.1517C75.5282 33.1517 71.4844 27.9691 71.4844 21.5221C71.4844 15.0752 75.8829 9.93701 82.7803 9.93701C90.4726 9.93701 93.9906 15.5922 93.9906 21.3888L93.9865 23.2955ZM78.9525 18.6784C78.9525 18.9409 79.0421 19.0823 79.2174 19.0823H86.1474C86.1916 19.0881 86.2365 19.0844 86.2792 19.0716C86.3218 19.0588 86.3612 19.0372 86.3947 19.0082C86.4283 18.9791 86.4552 18.9433 86.4737 18.9032C86.4922 18.863 86.5019 18.8195 86.5021 18.7753C86.5021 16.5981 85.3566 14.9459 82.7639 14.9459C80.3588 14.9338 78.9973 16.594 78.9525 18.6784Z" fill="white"/>
<path d="M117.178 25.7756C116.741 28.7405 113.509 33.1395 106.762 33.1395C99.8607 33.1395 95.2461 27.9569 95.2461 21.5099C95.2461 15.063 99.8607 9.9248 106.762 9.9248C113.488 9.9248 116.782 14.2793 117.178 17.2847C117.222 17.4584 117.178 17.7613 117.002 17.8058L111.116 18.5894C111.017 18.6143 110.912 18.6015 110.822 18.5536C110.733 18.5058 110.664 18.4263 110.631 18.3309C110.19 16.804 109.049 15.3659 106.893 15.3659C103.864 15.3659 102.278 17.9391 102.278 21.5099C102.278 25.0808 103.864 27.6943 106.893 27.6943C109.049 27.6943 110.19 26.1674 110.631 24.7738C110.716 24.5153 110.851 24.4708 111.116 24.5153L117.002 25.2989C117.178 25.3434 117.222 25.6019 117.178 25.7756Z" fill="white"/>
<path d="M118.765 32.6589V1.48251C118.761 1.43559 118.768 1.38843 118.784 1.34432C118.801 1.3002 118.827 1.26021 118.861 1.22712C118.894 1.19403 118.935 1.16865 118.98 1.15276C119.024 1.13687 119.072 1.13085 119.119 1.13512H125.446C125.493 1.13085 125.541 1.13687 125.586 1.15276C125.631 1.16865 125.671 1.19403 125.705 1.22712C125.739 1.26021 125.765 1.3002 125.781 1.34432C125.798 1.38843 125.805 1.43559 125.801 1.48251V13.0596C125.801 13.3625 126.017 13.4635 126.208 13.1888C127.014 12.1938 128.029 11.3858 129.183 10.8219C130.338 10.258 131.603 9.95179 132.89 9.92494C139.041 9.92494 142.164 14.3239 142.164 20.2902V32.6589C142.168 32.7059 142.161 32.753 142.144 32.7971C142.128 32.8413 142.102 32.8813 142.068 32.9143C142.034 32.9474 141.994 32.9728 141.949 32.9887C141.904 33.0046 141.856 33.0106 141.809 33.0063H135.478C135.431 33.0106 135.383 33.0046 135.339 32.9887C135.294 32.9728 135.253 32.9474 135.22 32.9143C135.186 32.8813 135.16 32.8413 135.143 32.7971C135.127 32.753 135.12 32.7059 135.124 32.6589V20.2902C135.124 16.9778 133.412 15.3661 130.64 15.3661C128.133 15.3661 125.805 17.3293 125.805 19.8539V32.6589C125.809 32.7059 125.802 32.753 125.785 32.7971C125.769 32.8413 125.743 32.8813 125.709 32.9143C125.675 32.9474 125.635 32.9728 125.59 32.9887C125.545 33.0046 125.498 33.0106 125.45 33.0063H119.132C119.083 33.0125 119.034 33.008 118.988 32.9929C118.942 32.9779 118.9 32.9528 118.864 32.9195C118.829 32.8862 118.802 32.8455 118.785 32.8004C118.768 32.7553 118.761 32.707 118.765 32.6589Z" fill="white"/>
<path d="M144.446 32.7517V10.4944C144.443 10.4475 144.449 10.4003 144.466 10.3562C144.482 10.3121 144.509 10.2721 144.542 10.239C144.576 10.2059 144.617 10.1805 144.661 10.1646C144.706 10.1487 144.754 10.1427 144.801 10.147H151.128C151.175 10.1426 151.222 10.1486 151.267 10.1645C151.312 10.1804 151.352 10.2059 151.385 10.2391C151.419 10.2722 151.445 10.3123 151.461 10.3564C151.477 10.4006 151.483 10.4477 151.478 10.4944V13.1523C151.478 13.4553 151.698 13.5563 151.886 13.2816C152.781 12.2792 153.876 11.4714 155.102 10.909C156.327 10.3466 157.657 10.0417 159.008 10.0137C164.283 10.0137 167.841 12.6716 167.841 19.9467V32.7517C167.846 32.7984 167.84 32.8455 167.824 32.8896C167.808 32.9338 167.782 32.9738 167.748 33.007C167.715 33.0402 167.674 33.0656 167.63 33.0815C167.585 33.0975 167.538 33.1035 167.491 33.0991H161.16C161.113 33.1035 161.065 33.0975 161.021 33.0815C160.976 33.0656 160.936 33.0402 160.902 33.007C160.869 32.9738 160.843 32.9338 160.827 32.8896C160.811 32.8455 160.805 32.7984 160.809 32.7517V20.3829C160.809 16.9817 159.097 15.4588 156.325 15.4588C153.822 15.4588 151.931 17.418 151.491 19.9467V32.7517C151.495 32.7984 151.489 32.8455 151.473 32.8896C151.457 32.9338 151.431 32.9738 151.398 33.007C151.364 33.0402 151.324 33.0656 151.279 33.0815C151.235 33.0975 151.187 33.1035 151.14 33.0991H144.813C144.765 33.1053 144.716 33.1007 144.67 33.0857C144.624 33.0707 144.581 33.0456 144.546 33.0123C144.511 32.9789 144.484 32.9383 144.466 32.8932C144.449 32.8481 144.442 32.7998 144.446 32.7517Z" fill="white"/>
<path d="M189.103 20.5284V32.7518C189.107 32.7985 189.101 32.8456 189.085 32.8897C189.069 32.9338 189.043 32.9739 189.01 33.0071C188.977 33.0402 188.936 33.0657 188.892 33.0816C188.847 33.0975 188.799 33.1035 188.752 33.0992H182.422C182.374 33.1035 182.327 33.0975 182.282 33.0816C182.238 33.0657 182.197 33.0402 182.164 33.0071C182.13 32.9739 182.105 32.9338 182.089 32.8897C182.073 32.8456 182.067 32.7985 182.071 32.7518V30.9663C182.071 30.6593 181.851 30.5624 181.663 30.7886C180.936 31.566 180.053 32.1834 179.07 32.6009C178.086 33.0184 177.026 33.2267 175.956 33.2123C171.912 33.2123 169.145 30.7886 169.145 26.8986C169.145 20.9324 175.3 18.9288 181.716 18.6662C181.981 18.6662 182.067 18.537 182.067 18.2623C182.067 15.8669 180.265 15.4347 178.374 15.4347C176.837 15.4347 173.89 15.9598 172.259 16.7839C172.039 16.9172 171.851 16.8727 171.819 16.6102L171.073 12.7363C171.052 12.6546 171.058 12.5686 171.09 12.4904C171.121 12.4121 171.177 12.3456 171.248 12.3001C173.49 10.862 177.049 9.9895 179.992 9.9895C188.447 10.0299 189.103 15.8669 189.103 20.5284ZM181.851 27.0966C181.917 27.0434 181.97 26.9771 182.008 26.9019C182.046 26.8266 182.068 26.7443 182.071 26.6603V23.3924C182.075 23.3457 182.069 23.2986 182.053 23.2544C182.037 23.2103 182.012 23.1702 181.978 23.1371C181.945 23.1039 181.904 23.0784 181.86 23.0625C181.815 23.0466 181.768 23.0406 181.72 23.045C178.117 23.045 176.621 24.8304 176.621 26.2765C176.621 27.2339 177.326 28.2357 178.908 28.2357C179.997 28.2276 181.045 27.8221 181.851 27.0966Z" fill="white"/>
</g>
<defs>
<clipPath id="clip0_671_790">
<rect width="200" height="34" fill="white"/>
</clipPath>
</defs>
</svg>
