<svg width="88" height="26" viewBox="0 0 88 26" fill="none" xmlns="http://www.w3.org/2000/svg">
<g clip-path="url(#clip0_1952_797)">
<path d="M15.8334 4.87653C15.8129 4.00962 16.028 3.15328 16.456 2.39798C16.8806 1.66333 17.4955 1.05558 18.2367 0.63819C18.9982 0.218632 19.8568 0.00499049 20.7271 0.018552C21.641 0.00717014 22.5387 0.259088 23.312 0.743934C24.0853 1.22878 24.7012 1.92588 25.0854 2.75118L24.1141 3.16012C23.8206 2.52333 23.3523 1.98207 22.7631 1.59866C22.1633 1.19142 21.4532 0.975311 20.7271 0.979021C20.0485 0.973609 19.3808 1.14956 18.7938 1.48853C18.2068 1.82749 17.722 2.31704 17.3899 2.90609C17.0547 3.5115 16.879 4.19149 16.879 4.88273C16.879 5.57397 17.0547 6.25396 17.3899 6.85938C17.7233 7.44683 18.2086 7.93477 18.7954 8.27255C19.3823 8.61032 20.0492 8.78561 20.7271 8.78024C21.4533 8.78434 22.1634 8.5682 22.7631 8.1606C23.3507 7.77543 23.8186 7.23462 24.1141 6.5991L25.0854 7.00188C24.7027 7.82882 24.0874 8.52762 23.3139 9.0137C22.5404 9.49978 21.6418 9.75229 20.7271 9.74067C19.8568 9.75423 18.9982 9.54059 18.2367 9.12103C17.4955 8.70365 16.8806 8.09593 16.456 7.36128C16.0278 6.60381 15.8127 5.74543 15.8334 4.87653Z" fill="white"/>
<path d="M26.479 0.136292H27.5374V6.10961C27.532 6.59399 27.6567 7.07101 27.8985 7.49139C28.1384 7.89337 28.4853 8.22151 28.9009 8.43945C29.3514 8.6688 29.8519 8.78373 30.3578 8.77404C30.8698 8.78501 31.3767 8.67009 31.8334 8.43945C32.2508 8.22395 32.5983 7.89524 32.8358 7.49139C33.0708 7.06882 33.191 6.59255 33.1845 6.10961V0.136292H34.2491V6.10961C34.2563 6.76282 34.0841 7.40557 33.7511 7.96852C33.4214 8.52058 32.9424 8.96934 32.3688 9.26358C31.7453 9.57341 31.0579 9.73466 30.3609 9.73466C29.664 9.73466 28.9766 9.57341 28.353 9.26358C27.7823 8.96758 27.3059 8.5191 26.9771 7.96852C26.6411 7.40682 26.4686 6.76322 26.479 6.10961V0.136292Z" fill="white"/>
<path d="M36.7209 6.95849C36.7514 7.22624 36.8361 7.48506 36.9699 7.71935C37.1036 7.95364 37.2837 8.15856 37.4992 8.3217C38.0015 8.66455 38.6029 8.83428 39.2113 8.805C39.6135 8.81017 40.013 8.73868 40.3881 8.59434C40.6998 8.47185 40.9743 8.2712 41.1851 8.01188C41.3703 7.7676 41.4688 7.46902 41.4652 7.16298C41.4806 6.82228 41.3623 6.48897 41.1353 6.23352C40.9046 5.99268 40.6242 5.80451 40.3134 5.68204C39.875 5.51624 39.4282 5.37352 38.9747 5.25449C38.4274 5.11475 37.8906 4.93668 37.3684 4.72161C36.9645 4.54429 36.6083 4.27467 36.3286 3.93465C36.0279 3.53596 35.878 3.04449 35.9053 2.54667C35.9016 2.08074 36.0454 1.62548 36.3163 1.24545C36.6086 0.844515 37.0044 0.52975 37.4618 0.33456C37.9725 0.10634 38.5271 -0.0078542 39.0868 -3.0861e-05C39.907 -0.0293936 40.7122 0.224548 41.3656 0.718732C41.9566 1.17397 42.3454 1.84107 42.449 2.57765L41.3719 2.79454C41.3055 2.27067 41.0404 1.79184 40.6309 1.4561C40.1919 1.10248 39.6387 0.919691 39.0744 0.941793C38.7051 0.935973 38.3385 1.00558 37.9973 1.14628C37.7034 1.26067 37.447 1.45368 37.2564 1.70397C37.0826 1.9369 36.9886 2.21934 36.9886 2.50949C36.9759 2.82708 37.0901 3.13677 37.3062 3.3708C37.5239 3.60213 37.7924 3.78024 38.0907 3.89127C38.5134 4.05437 38.9459 4.19097 39.3857 4.30026C39.9496 4.4418 40.5029 4.62192 41.0419 4.83934C41.4634 5.02185 41.8318 5.30745 42.1127 5.66963C42.4278 6.09514 42.5841 6.6166 42.5548 7.14437C42.5598 7.63163 42.4021 8.10675 42.1065 8.49518C41.7902 8.90512 41.3717 9.22555 40.8924 9.42464C40.3511 9.65293 39.7681 9.76689 39.1803 9.75926C38.3231 9.79079 37.4785 9.54751 36.7708 9.06527C36.4652 8.84973 36.2082 8.57301 36.0163 8.25291C35.8244 7.9328 35.7017 7.57636 35.6562 7.20636L36.7209 6.95849Z" fill="white"/>
<path d="M46.2857 9.61674V1.09672H43.0605V0.136292H50.5754V1.09672H47.3504V9.61674H46.2857Z" fill="white"/>
<path d="M50.6566 4.87654C50.6456 4.00675 50.8715 3.15023 51.3104 2.39799C51.735 1.66334 52.3499 1.05558 53.0911 0.638198C53.8539 0.219989 54.7106 0.000671387 55.5815 0.000671387C56.4524 0.000671387 57.3092 0.219989 58.072 0.638198C58.8148 1.05543 59.4318 1.6631 59.8589 2.39799C60.2894 3.15377 60.5158 4.00773 60.5158 4.87654C60.5158 5.74534 60.2894 6.59931 59.8589 7.35509C59.4318 8.08998 58.8148 8.6976 58.072 9.11484C57.3092 9.53305 56.4524 9.75237 55.5815 9.75237C54.7106 9.75237 53.8539 9.53305 53.0911 9.11484C52.3499 8.69745 51.735 8.08973 51.3104 7.35509C50.8724 6.60249 50.6465 5.74621 50.6566 4.87654ZM51.7462 4.87654C51.7379 5.56875 51.9141 6.25079 52.2568 6.85318C52.5902 7.44064 53.0755 7.92858 53.6623 8.26635C54.2491 8.60413 54.9161 8.77942 55.594 8.77404C56.2733 8.78251 56.9424 8.60859 57.5308 8.27055C58.1191 7.93252 58.6051 7.44288 58.9374 6.85318C59.2726 6.24777 59.4484 5.56777 59.4484 4.87654C59.4484 4.1853 59.2726 3.5053 58.9374 2.89989C58.6069 2.30815 58.1216 1.81652 57.5329 1.47723C56.9442 1.13793 56.2742 0.963642 55.594 0.972826C54.9154 0.967414 54.2477 1.14337 53.6607 1.48233C53.0737 1.8213 52.5889 2.31085 52.2568 2.89989C51.9132 3.50195 51.737 4.18422 51.7462 4.87654Z" fill="white"/>
<path d="M62.0059 9.61674V0.136292H63.0269V9.61674H62.0059ZM65.8847 9.61674L62.9584 0.136292H64.0044L66.9307 9.61674H66.7377L69.6639 0.136292H70.685L67.7463 9.61674H65.8847ZM70.6166 9.61674V0.136292H71.6377V9.61674H70.6166Z" fill="white"/>
<path d="M0 25.8699V16.3894H1.05849V25.8699H0Z" fill="white"/>
<path d="M5.3111 25.8699V17.3808H2.08594V16.3894H9.60091V17.3808H6.37574V25.8699H5.3111Z" fill="white"/>
<path d="M15.5525 23.2116C15.5841 23.4797 15.6699 23.7387 15.8047 23.973C15.9395 24.2073 16.1206 24.412 16.337 24.5748C16.8388 24.9133 17.4374 25.0808 18.0429 25.0519C18.4453 25.0603 18.8454 24.9887 19.2197 24.8412C19.5323 24.7236 19.8076 24.5246 20.0166 24.265C20.2037 24.0213 20.3044 23.7228 20.303 23.4161C20.3167 23.0745 20.1961 22.7411 19.9668 22.4866C19.7374 22.2444 19.4566 22.056 19.1449 21.9351C18.7098 21.7664 18.2648 21.6236 17.8125 21.5076C17.2621 21.3688 16.723 21.1886 16.2 20.9685C15.797 20.7954 15.4423 20.5275 15.1664 20.1878C14.8639 19.7897 14.7119 19.2983 14.7369 18.7998C14.7306 18.3325 14.877 17.8759 15.1541 17.4986C15.4438 17.0962 15.8375 16.7794 16.2934 16.5815C16.8054 16.3582 17.3594 16.2462 17.9184 16.2531C18.739 16.2206 19.5452 16.4749 20.1972 16.9719C20.7882 17.4271 21.1769 18.0942 21.2805 18.8308L20.2034 19.0476C20.1395 18.523 19.874 18.0433 19.4625 17.7092C19.024 17.3546 18.4705 17.1717 17.906 17.1949C17.5371 17.1871 17.1705 17.2546 16.8288 17.3932C16.5355 17.5115 16.2796 17.7063 16.088 17.9571C15.9159 18.1906 15.8242 18.4731 15.8264 18.7626C15.819 18.9195 15.8426 19.0763 15.896 19.2241C15.9494 19.3719 16.0316 19.5077 16.1378 19.6239C16.359 19.854 16.6292 20.0319 16.9285 20.1444C17.2481 20.2683 17.6777 20.4046 18.2173 20.5534C18.7814 20.6939 19.3349 20.8741 19.8734 21.0924C20.2952 21.2746 20.6652 21.5577 20.9505 21.9166C21.2619 22.3463 21.4177 22.8683 21.3926 23.3975C21.3976 23.8848 21.2399 24.3599 20.9443 24.7483C20.6174 25.1605 20.1882 25.4808 19.6991 25.6778C19.1596 25.9041 18.5785 26.016 17.9931 26.0062C17.1366 26.0399 16.2919 25.7988 15.5836 25.3184C15.278 25.1023 15.0206 24.8256 14.8277 24.5057C14.6348 24.1858 14.5106 23.8295 14.4629 23.4595L15.5525 23.2116Z" fill="white"/>
<path d="M22.6134 21.1296C22.5929 20.2627 22.808 19.4064 23.236 18.6511C23.6613 17.9149 24.2788 17.3068 25.0229 16.8913C25.7857 16.4731 26.6425 16.2538 27.5134 16.2538C28.3843 16.2538 29.241 16.4731 30.0038 16.8913C30.7463 17.307 31.3616 17.9151 31.7845 18.6511C32.2162 19.4064 32.4433 20.2606 32.4433 21.1296C32.4433 21.9987 32.2162 22.8528 31.7845 23.6082C31.3601 24.3445 30.7452 24.9543 30.0038 25.3742C29.2398 25.7885 28.3835 26.0056 27.5134 26.0056C26.6432 26.0056 25.787 25.7885 25.0229 25.3742C24.2746 24.9486 23.6538 24.332 23.2248 23.5881C22.7957 22.8441 22.574 21.9997 22.5823 21.142L22.6134 21.1296ZM23.703 21.1296C23.6976 21.8215 23.8735 22.5028 24.2135 23.1063C24.5424 23.6917 25.0243 24.1778 25.6081 24.5128C26.2019 24.8497 26.8735 25.0269 27.5569 25.0269C28.2403 25.0269 28.912 24.8497 29.5057 24.5128C30.0873 24.1769 30.5669 23.6909 30.8941 23.1063C31.2293 22.4997 31.4051 21.8187 31.4051 21.1265C31.4051 20.4343 31.2293 19.7533 30.8941 19.1468C30.5588 18.5592 30.0731 18.0707 29.4863 17.7308C28.8996 17.3909 28.2327 17.2118 27.5538 17.2118C26.8749 17.2118 26.2081 17.3909 25.6214 17.7308C25.0346 18.0707 24.5488 18.5592 24.2135 19.1468C23.8735 19.7525 23.6976 20.4358 23.703 21.1296Z" fill="white"/>
<path d="M33.9512 25.8699V16.3894H35.0158V24.9032H39.8162V25.8699H33.9512Z" fill="white"/>
<path d="M40.4573 16.3894H41.5158V22.3379C41.5086 22.8225 41.6333 23.3 41.8769 23.7197C42.1144 24.1235 42.4619 24.4522 42.8793 24.6678C43.3282 24.902 43.8295 25.0192 44.3362 25.0085C44.849 25.0194 45.3563 24.9023 45.8118 24.6678C46.2309 24.4568 46.5775 24.1269 46.808 23.7197C47.0494 23.2994 47.172 22.8219 47.1628 22.3379V16.3894H48.2276V22.3379C48.2337 22.991 48.0615 23.6335 47.7294 24.1968C47.3998 24.7489 46.9208 25.1976 46.3473 25.4919C45.7225 25.7976 45.0356 25.9565 44.3394 25.9565C43.6431 25.9565 42.9562 25.7976 42.3314 25.4919C41.7603 25.1942 41.2822 24.7462 40.9492 24.1968C40.6193 23.6329 40.4492 22.9904 40.4573 22.3379V16.3894Z" fill="white"/>
<path d="M52.3248 25.8699V17.3808H49.0996V16.3894H56.6083V17.3808H53.3832V25.8699H52.3248Z" fill="white"/>
<path d="M57.6094 25.8699V16.3894H58.6678V25.8699H57.6094Z" fill="white"/>
<path d="M60.1446 21.1296C60.1241 20.2627 60.3392 19.4064 60.7672 18.6511C61.1925 17.9149 61.8099 17.3068 62.5541 16.8913C63.3169 16.4731 64.1736 16.2538 65.0445 16.2538C65.9154 16.2538 66.7722 16.4731 67.535 16.8913C68.2774 17.307 68.8929 17.9151 69.3157 18.6511C69.7475 19.4064 69.9744 20.2606 69.9744 21.1296C69.9744 21.9987 69.7475 22.8528 69.3157 23.6082C68.8913 24.3445 68.2764 24.9543 67.535 25.3742C66.7709 25.7885 65.9147 26.0056 65.0445 26.0056C64.1744 26.0056 63.3182 25.7885 62.5541 25.3742C61.8057 24.9486 61.1851 24.332 60.756 23.5881C60.327 22.8441 60.1052 21.9997 60.1135 21.142L60.1446 21.1296ZM61.2342 21.1296C61.2258 21.8218 61.402 22.5039 61.7447 23.1063C62.0736 23.6917 62.5555 24.1778 63.1394 24.5128C63.7331 24.8497 64.4048 25.0269 65.0882 25.0269C65.7716 25.0269 66.4432 24.8497 67.037 24.5128C67.6185 24.1769 68.0982 23.6909 68.4254 23.1063C68.7605 22.4997 68.9363 21.8187 68.9363 21.1265C68.9363 20.4343 68.7605 19.7533 68.4254 19.1468C68.0901 18.5592 67.6043 18.0707 67.0175 17.7308C66.4307 17.3909 65.764 17.2118 65.0851 17.2118C64.4061 17.2118 63.7393 17.3909 63.1525 17.7308C62.5658 18.0707 62.0801 18.5592 61.7447 19.1468C61.4018 19.7513 61.2256 20.4354 61.2342 21.1296Z" fill="white"/>
<path d="M71.4941 25.8699V16.3894H73.5799L78.5296 25.7583H78.4736V16.3894H79.5382V25.8699H77.4525L72.4716 16.4947H72.5401V25.8699H71.4941Z" fill="white"/>
<path d="M82.1662 23.2116C82.1967 23.4793 82.2814 23.7382 82.4152 23.9725C82.5489 24.2068 82.729 24.4117 82.9445 24.5748C83.449 24.9126 84.0493 25.0799 84.6567 25.0519C85.0591 25.0603 85.4591 24.9887 85.8334 24.8412C86.1461 24.7236 86.4213 24.5246 86.6304 24.265C86.8156 24.0207 86.9142 23.7221 86.9106 23.4161C86.926 23.0754 86.8076 22.7421 86.5806 22.4866C86.35 22.2458 86.0695 22.0576 85.7587 21.9351C85.3213 21.7665 84.8744 21.6238 84.4201 21.5076C83.8699 21.3679 83.3309 21.1877 82.8075 20.9685C82.4054 20.794 82.0511 20.5263 81.774 20.1878C81.4715 19.7897 81.3194 19.2983 81.3444 18.7998C81.3412 18.333 81.4873 17.8773 81.7616 17.4986C82.0553 17.0974 82.4505 16.781 82.9072 16.5815C83.4192 16.3582 83.9732 16.2462 84.5322 16.2531C85.3528 16.2206 86.1589 16.4749 86.8109 16.9719C87.4019 17.4271 87.7907 18.0942 87.8943 18.8308L86.8172 19.0476C86.7508 18.5238 86.4857 18.045 86.0762 17.7092C85.6372 17.3556 85.084 17.1728 84.5197 17.1949C84.1508 17.1871 83.7843 17.2546 83.4426 17.3932C83.1483 17.5099 82.892 17.705 82.7017 17.9571C82.5279 18.19 82.434 18.4724 82.434 18.7626C82.4212 19.0802 82.5354 19.3899 82.7515 19.6239C82.9692 19.8552 83.2377 20.0334 83.536 20.1444C83.8535 20.2683 84.2893 20.4046 84.831 20.5534C85.3949 20.6949 85.9482 20.875 86.4872 21.0924C86.9071 21.2748 87.275 21.558 87.558 21.9166C87.8722 22.3449 88.0284 22.868 88.0001 23.3975C88.0052 23.8848 87.8474 24.3599 87.5518 24.7483C87.2355 25.1583 86.817 25.4787 86.3377 25.6778C85.796 25.9041 85.213 26.0159 84.6256 26.0062C83.7691 26.0399 82.9244 25.7988 82.2161 25.3184C81.911 25.1023 81.6544 24.8254 81.4626 24.5054C81.2707 24.1854 81.1478 23.8293 81.1016 23.4595L82.1662 23.2116Z" fill="white"/>
</g>
<defs>
<clipPath id="clip0_1952_797">
<rect width="88" height="26" fill="white"/>
</clipPath>
</defs>
</svg>
