<svg width="200" height="34" viewBox="0 0 200 34" fill="none" xmlns="http://www.w3.org/2000/svg">
<g clip-path="url(#clip0_1952_783)">
<path d="M22.666 0V14.0896H36.8848V0H22.666ZM34.3614 6.78626H30.0363V2.5004H34.3818L34.3614 6.78626Z" fill="white"/>
<path d="M36.6559 22.5078C35.0391 25.9429 32.4662 28.8491 29.2397 30.885C26.0132 32.9208 22.2673 34.0015 18.4422 34C14.6173 34.001 10.8715 32.9201 7.64512 30.8843C4.41872 28.8486 1.84572 25.9426 0.228516 22.5078H36.6559Z" fill="white"/>
<path d="M0 0V14.0896H14.2187V0H0ZM11.6954 6.78626H7.37027V2.5004H11.6954V6.78626Z" fill="white"/>
<path d="M192.955 10.0542C192.949 9.43263 193.117 8.82158 193.44 8.28894C193.748 7.7666 194.186 7.33126 194.712 7.02459C195.248 6.71909 195.856 6.56146 196.473 6.56814C197.096 6.56343 197.709 6.72084 198.251 7.02459C198.785 7.32184 199.227 7.75931 199.527 8.28894C199.833 8.82738 199.992 9.43599 199.987 10.0542C199.994 10.6649 199.835 11.2663 199.527 11.7952C199.222 12.3151 198.781 12.7437 198.251 13.0353C197.71 13.3421 197.097 13.501 196.473 13.4958C195.855 13.503 195.247 13.3439 194.712 13.0353C194.19 12.7344 193.753 12.3079 193.44 11.7952C193.115 11.2723 192.947 10.6684 192.955 10.0542ZM193.771 10.0542C193.763 10.4082 193.827 10.7602 193.959 11.0892C194.092 11.4181 194.29 11.7173 194.541 11.9689C194.787 12.2249 195.084 12.427 195.413 12.562C195.742 12.697 196.097 12.7619 196.453 12.7525C196.93 12.7589 197.4 12.639 197.815 12.4051C198.223 12.1741 198.558 11.8339 198.781 11.4236C199.015 11.0049 199.136 10.533 199.131 10.0542C199.143 9.69637 199.081 9.33995 198.949 9.00661C198.818 8.67327 198.619 8.36999 198.365 8.11525C198.116 7.86561 197.817 7.66911 197.489 7.53782C197.16 7.40653 196.807 7.34323 196.453 7.35179C195.975 7.34678 195.504 7.4666 195.087 7.69919C194.684 7.92823 194.351 8.26023 194.121 8.66056C193.892 9.08884 193.782 9.56989 193.803 10.0542H193.771ZM195.087 11.8396V8.20412H196.759C197.096 8.19891 197.423 8.31519 197.68 8.53131C197.81 8.63185 197.914 8.76077 197.985 8.90796C198.055 9.05515 198.091 9.2166 198.088 9.3796C198.092 9.53968 198.061 9.69879 197.996 9.84547C197.931 9.99216 197.835 10.1228 197.713 10.2279C197.45 10.4506 197.112 10.5674 196.767 10.5551H195.931V11.8194L195.087 11.8396ZM196.669 9.92088C196.816 9.9251 196.96 9.87949 197.077 9.79162C197.137 9.74363 197.185 9.6817 197.215 9.61128C197.246 9.54085 197.258 9.46407 197.252 9.38767C197.259 9.31789 197.248 9.24751 197.221 9.18272C197.194 9.11792 197.152 9.06068 197.097 9.01604C196.976 8.93928 196.833 8.90122 196.689 8.90698H195.943V9.90876L196.669 9.92088ZM197.109 11.8396L196.058 10.2238H197.032L198.132 11.8396H197.109Z" fill="white"/>
<path d="M76.9144 2.41963V8.07485C76.9187 8.13306 76.9103 8.1915 76.8896 8.24615C76.869 8.30081 76.8366 8.35039 76.7948 8.39147C76.7529 8.43255 76.7026 8.46415 76.6473 8.48411C76.5919 8.50407 76.5329 8.5119 76.4742 8.50708H68.9612C68.9021 8.50217 68.8427 8.51009 68.787 8.53028C68.7314 8.55047 68.6808 8.58245 68.6389 8.62398C68.597 8.66551 68.5648 8.71559 68.5444 8.77075C68.524 8.8259 68.516 8.8848 68.5209 8.94333V32.461C68.5253 32.5192 68.5168 32.5776 68.4962 32.6323C68.4755 32.687 68.4432 32.7365 68.4013 32.7776C68.3595 32.8187 68.3091 32.8503 68.2538 32.8702C68.1984 32.8902 68.1394 32.898 68.0807 32.8932H61.489C61.4303 32.898 61.3713 32.8902 61.3159 32.8702C61.2606 32.8503 61.2103 32.8187 61.1684 32.7776C61.1266 32.7365 61.0942 32.687 61.0736 32.6323C61.0529 32.5776 61.0445 32.5192 61.0488 32.461V8.94333C61.0537 8.8848 61.0457 8.8259 61.0253 8.77075C61.005 8.71559 60.9727 8.66551 60.9308 8.62398C60.8889 8.58245 60.8383 8.55047 60.7827 8.53028C60.727 8.51009 60.6676 8.50217 60.6085 8.50708H53.0467C52.9883 8.51129 52.9297 8.503 52.8748 8.48277C52.82 8.46254 52.7702 8.43084 52.7288 8.38983C52.6874 8.34882 52.6554 8.29946 52.635 8.24511C52.6146 8.19076 52.6062 8.13269 52.6105 8.07485V2.41963C52.6062 2.36179 52.6146 2.30371 52.635 2.24936C52.6554 2.19501 52.6874 2.14566 52.7288 2.10465C52.7702 2.06364 52.82 2.03195 52.8748 2.01172C52.9297 1.99149 52.9883 1.98319 53.0467 1.98741H76.4742C76.5329 1.98258 76.5919 1.99042 76.6473 2.01037C76.7026 2.03033 76.7529 2.06194 76.7948 2.10301C76.8366 2.14409 76.869 2.19366 76.8896 2.24832C76.9103 2.30297 76.9187 2.36142 76.9144 2.41963Z" fill="white"/>
<path d="M93.9865 23.2955C93.9902 23.3424 93.9836 23.3895 93.9671 23.4336C93.9505 23.4778 93.9244 23.5178 93.8906 23.5508C93.8569 23.5839 93.8162 23.6093 93.7715 23.6252C93.7268 23.6411 93.6791 23.6471 93.6318 23.6429H79.2215C79.0014 23.6429 78.9117 23.7317 78.9117 23.9902C78.9117 26.1675 81.1538 27.6944 83.0452 27.6944C83.7913 27.7334 84.535 27.5814 85.2047 27.2531C85.8743 26.9249 86.4475 26.4314 86.869 25.8201C86.9083 25.7412 86.9727 25.6771 87.0522 25.6378C87.1316 25.5984 87.2219 25.5858 87.3092 25.602L93.1998 26.3856C93.4199 26.4301 93.5503 26.5593 93.4607 26.7896C92.2744 30.1464 88.8909 33.1517 83.1757 33.1517C75.5282 33.1517 71.4844 27.9691 71.4844 21.5221C71.4844 15.0752 75.8829 9.93701 82.7803 9.93701C90.4726 9.93701 93.9906 15.5922 93.9906 21.3888L93.9865 23.2955ZM78.9525 18.6784C78.9525 18.9409 79.0421 19.0823 79.2174 19.0823H86.1474C86.1916 19.0881 86.2365 19.0844 86.2792 19.0716C86.3218 19.0588 86.3612 19.0372 86.3947 19.0082C86.4283 18.9791 86.4552 18.9433 86.4737 18.9032C86.4922 18.863 86.5019 18.8195 86.5021 18.7753C86.5021 16.5981 85.3566 14.9459 82.7639 14.9459C80.3588 14.9338 78.9973 16.594 78.9525 18.6784Z" fill="white"/>
<path d="M117.178 25.7757C116.741 28.7407 113.509 33.1396 106.762 33.1396C99.8607 33.1396 95.2461 27.957 95.2461 21.5101C95.2461 15.0631 99.8607 9.92493 106.762 9.92493C113.488 9.92493 116.782 14.2794 117.178 17.2848C117.222 17.4585 117.178 17.7615 117.002 17.8059L111.116 18.5895C111.017 18.6144 110.912 18.6016 110.822 18.5537C110.733 18.5059 110.664 18.4264 110.631 18.331C110.19 16.8041 109.049 15.3661 106.893 15.3661C103.864 15.3661 102.278 17.9392 102.278 21.5101C102.278 25.0809 103.864 27.6945 106.893 27.6945C109.049 27.6945 110.19 26.1675 110.631 24.7739C110.716 24.5154 110.851 24.471 111.116 24.5154L117.002 25.2991C117.178 25.3435 117.222 25.602 117.178 25.7757Z" fill="white"/>
<path d="M118.765 32.6589V1.48245C118.761 1.43553 118.768 1.38837 118.784 1.34426C118.801 1.30014 118.827 1.26014 118.861 1.22706C118.894 1.19397 118.935 1.16859 118.98 1.1527C119.024 1.13681 119.072 1.13079 119.119 1.13506H125.446C125.493 1.13079 125.541 1.13681 125.586 1.1527C125.631 1.16859 125.671 1.19397 125.705 1.22706C125.739 1.26014 125.765 1.30014 125.781 1.34426C125.798 1.38837 125.805 1.43553 125.801 1.48245V13.0595C125.801 13.3625 126.017 13.4634 126.208 13.1888C127.014 12.1937 128.029 11.3858 129.183 10.8218C130.338 10.2579 131.603 9.95173 132.89 9.92488C139.041 9.92488 142.164 14.3238 142.164 20.2901V32.6589C142.168 32.7058 142.161 32.753 142.144 32.7971C142.128 32.8412 142.102 32.8812 142.068 32.9143C142.034 32.9474 141.994 32.9727 141.949 32.9886C141.904 33.0045 141.856 33.0105 141.809 33.0063H135.478C135.431 33.0105 135.383 33.0045 135.339 32.9886C135.294 32.9727 135.253 32.9474 135.22 32.9143C135.186 32.8812 135.16 32.8412 135.143 32.7971C135.127 32.753 135.12 32.7058 135.124 32.6589V20.2901C135.124 16.9778 133.412 15.366 130.64 15.366C128.133 15.366 125.805 17.3292 125.805 19.8538V32.6589C125.809 32.7058 125.802 32.753 125.785 32.7971C125.769 32.8412 125.743 32.8812 125.709 32.9143C125.675 32.9474 125.635 32.9727 125.59 32.9886C125.545 33.0045 125.498 33.0105 125.45 33.0063H119.132C119.083 33.0125 119.034 33.0079 118.988 32.9929C118.942 32.9778 118.9 32.9527 118.864 32.9194C118.829 32.8861 118.802 32.8454 118.785 32.8003C118.768 32.7553 118.761 32.7069 118.765 32.6589Z" fill="white"/>
<path d="M144.446 32.7518V10.4945C144.443 10.4476 144.449 10.4004 144.466 10.3563C144.482 10.3122 144.509 10.2722 144.542 10.2391C144.576 10.206 144.617 10.1806 144.661 10.1647C144.706 10.1489 144.754 10.1428 144.801 10.1471H151.128C151.175 10.1427 151.222 10.1487 151.267 10.1646C151.312 10.1806 151.352 10.206 151.385 10.2392C151.419 10.2724 151.445 10.3124 151.461 10.3566C151.477 10.4007 151.483 10.4478 151.478 10.4945V13.1524C151.478 13.4554 151.698 13.5564 151.886 13.2817C152.781 12.2794 153.876 11.4716 155.102 10.9091C156.327 10.3467 157.657 10.0419 159.008 10.0138C164.283 10.0138 167.841 12.6717 167.841 19.9468V32.7518C167.846 32.7985 167.84 32.8456 167.824 32.8898C167.808 32.9339 167.782 32.974 167.748 33.0071C167.715 33.0403 167.674 33.0658 167.63 33.0817C167.585 33.0976 167.538 33.1036 167.491 33.0992H161.16C161.113 33.1036 161.065 33.0976 161.021 33.0817C160.976 33.0658 160.936 33.0403 160.902 33.0071C160.869 32.974 160.843 32.9339 160.827 32.8898C160.811 32.8456 160.805 32.7985 160.809 32.7518V20.3831C160.809 16.9818 159.097 15.459 156.325 15.459C153.822 15.459 151.931 17.4181 151.491 19.9468V32.7518C151.495 32.7985 151.489 32.8456 151.473 32.8898C151.457 32.9339 151.431 32.974 151.398 33.0071C151.364 33.0403 151.324 33.0658 151.279 33.0817C151.235 33.0976 151.187 33.1036 151.14 33.0992H144.813C144.765 33.1054 144.716 33.1008 144.67 33.0858C144.624 33.0708 144.581 33.0457 144.546 33.0124C144.511 32.9791 144.484 32.9384 144.466 32.8933C144.449 32.8482 144.442 32.7999 144.446 32.7518Z" fill="white"/>
<path d="M189.103 20.5285V32.7518C189.107 32.7985 189.101 32.8456 189.085 32.8898C189.069 32.9339 189.043 32.974 189.01 33.0071C188.977 33.0403 188.936 33.0658 188.892 33.0817C188.847 33.0976 188.799 33.1036 188.752 33.0992H182.422C182.374 33.1036 182.327 33.0976 182.282 33.0817C182.238 33.0658 182.197 33.0403 182.164 33.0071C182.13 32.974 182.105 32.9339 182.089 32.8898C182.073 32.8456 182.067 32.7985 182.071 32.7518V30.9664C182.071 30.6594 181.851 30.5625 181.663 30.7887C180.936 31.566 180.053 32.1835 179.07 32.601C178.086 33.0185 177.026 33.2268 175.956 33.2123C171.912 33.2123 169.145 30.7887 169.145 26.8987C169.145 20.9324 175.3 18.9289 181.716 18.6663C181.981 18.6663 182.067 18.537 182.067 18.2624C182.067 15.867 180.265 15.4347 178.374 15.4347C176.837 15.4347 173.89 15.9599 172.259 16.7839C172.039 16.9172 171.851 16.8728 171.819 16.6102L171.073 12.7364C171.052 12.6546 171.058 12.5686 171.09 12.4904C171.121 12.4122 171.177 12.3457 171.248 12.3001C173.49 10.8621 177.049 9.98956 179.992 9.98956C188.447 10.03 189.103 15.867 189.103 20.5285ZM181.851 27.0966C181.917 27.0435 181.97 26.9771 182.008 26.9019C182.046 26.8267 182.068 26.7444 182.071 26.6604V23.3924C182.075 23.3457 182.069 23.2986 182.053 23.2545C182.037 23.2104 182.012 23.1703 181.978 23.1371C181.945 23.104 181.904 23.0785 181.86 23.0626C181.815 23.0467 181.768 23.0407 181.72 23.0451C178.117 23.0451 176.621 24.8305 176.621 26.2766C176.621 27.234 177.326 28.2357 178.908 28.2357C179.997 28.2277 181.045 27.8221 181.851 27.0966Z" fill="white"/>
</g>
<defs>
<clipPath id="clip0_1952_783">
<rect width="200" height="34" fill="white"/>
</clipPath>
</defs>
</svg>
